<svg xmlns="http://www.w3.org/2000/svg" xml:space="preserve" id="svg340" version="1.1" viewBox="0 0 768.8 527.6"><style id="style1">.st0{fill:none;stroke:#fff;stroke-width:3;stroke-linecap:round;stroke-linejoin:round;stroke-miterlimit:10}.st3{fill:#fff}.st4{opacity:.21}.st5{opacity:.2}.st6{fill-rule:evenodd;clip-rule:evenodd;fill:#fff}</style><g id="Layer_2" transform="translate(-76.3 -46.9)"><path id="path1" d="M442.8 305.7h146m-225.3 0h88.8M593 267.2c-26.5-25.4-76.5-47.5-116.4-47.5-44.5 0-89.6 22-116.8 47.5m209.9 14.1c6.7 6.9 14.1 15.7 19.3 23.5" class="st0"/><path id="path2" d="M388 275.7c25.9-24.2 59.5-39.8 88.2-39.8 28.5 0 61.8 15.9 87.6 39.8M363.5 304c5.2-7.7 12.5-15.7 19.1-22.5" class="st0"/><path id="path3" d="M458.5 221v54.5m17.8-55.3v55.3m-35.6-50.7v50.7m-17.8-44.7v44.7m-17.7-37.2v37.2m-35.6-16v16m17.8-27.9v27.9m71.3-54.4 17.6 14.7M440.8 225l17.3 12.3m-34.8-6.6 16.9 11.4m-34.8-3.9 16.6 12.1m-34.6-2.8 17.1 13.9m-34.8-2.5 17.5 16.6m204.6.3H476.3m-115.6 0h115.6m115.2 5.6H361M494 221v54.5m17.8-50.7v50.7m17.8-44.7v44.7m17.7-37.2v37.2m35.6-16v16m-17.8-27.9v27.9m-71.3-54.4-17.5 14.7m35.4-10.8-17.4 12.4m34.9-6.7-16.9 11.4m34.8-3.9-16.6 12.1m34.6-2.8-16 14.6m33.7-3.2-17.5 16.8m17.6 6v14.7m-213.3-14.1v13.4m219.7 9.9h34.1l-4.8-44.4H594Z" style="fill:#fff;stroke:#fff;stroke-width:3;stroke-linecap:round;stroke-linejoin:round;stroke-miterlimit:10"/><path id="path4" d="m594 261.2-4.7 44.4h33.3l.6-1.6-4.6-42.8z" style="fill:#fff;stroke:#fff;stroke-miterlimit:10"/><path id="path5" d="M792 315.4s-4 1.1-9.2 2.1c-4.6.9-10.1 1.8-14.9 1.8h-1c-10-.2-45.7 8-53.2-1.2-2.2-.2-5.2 3.1-5.2 3.1s-7.7.9-17.2 1.5c-5.4.4-11.4.6-16.8.6-7.6 0-14-.7-16.1-2.6-.5-.3-1.1-4.3-1.1-4.3s-6.9 5.2-10.8 5.4c-4 .2-27.9-.8-28.4-2.3-.5-1.4-9-2.8-9-2.8l12.6-10.7 63-53.7s2.8.6 6.7 1.2c2.5.3 5.5.7 8.4.7 3.4.1 6.6-.2 8.9-1.2.3-.6 51 37.9 73.1 54.7.5.4.9.7 1.4 1.1q2.25 1.65 3.9 3 1.35 1.05 2.4 1.8c1.7 1.2 2.5 1.8 2.5 1.8M609.5 176.2l1.2-8-2.2 1.8 1.2-6.2-1.6 1.8.3-5-1.3 2-.8-5.3-.9 5.3-1.3-2 .4 5-1.7-1.8 1.2 6.2-2.1-1.8 1.1 8-2.3-3.5 1.8 11.1.8 14.6 2.9 8.7v.1l.1.2v-.4l2.9-8.6.9-14.6 1.8-11.1z" class="st3"/><path id="path6" d="M604.4 207.1s-2.8-8.4-5.8-11.1c-3-2.6-8-3.7-11.9-3.8-9.4-.2-16.8 6.1-16.8 6.1s.6-1.7 2-3.2 2.1-1.7 2.1-1.7l-4.4.1s2.8-1.5 3.5-1.8c1.6-.5 4.5-.8 4.5-.8l-5.8-1.6s2.1-1 5-.5c.8.1 3.9 1 3.9 1l-4.4-3s3 0 5.1.9l3 1.4-4.4-3.5s2.5.4 5.3 1.2c1.3.4 2.7 1.3 2.7 1.3l-.5-2.9 5.8 4.1 2.1-3.1 3.4 4.5 2.7-2.3s5.3 12.2 5.7 16.2c.5 4.2-2.8 2.5-2.8 2.5m3.3-3.1s-.5-13.8 8.5-25.1c7.4-9.5 16.9-12 16.9-12s-5.1-.1-9.6 1.7c-2.5 1.1-2.2 1.6-2.2 1.6s3-4.3 2.8-4.2c-3.5 1.8-5.8 5.5-5.8 5.5l.5-3.5s-1.8 2.2-2.7 4.1c-.4.9-1.1 3.3-1.1 3.3l.2-4.8s-1.4 2.9-1.7 3.9c-.3.8-1 3.5-1 3.5l-.7-2.9-2.4 7.1-.8-2.1-2.2 19.2z" class="st3"/><path id="path7" d="M605.5 202.2s-.4-11.8-9.3-23.2c-7.4-9.5-16.5-12.1-16.5-12.1s5.1-.1 9.6 1.7c2.5 1.1 2.3 1.6 2.3 1.6s-3-4.3-2.8-4.2c3.5 1.8 5.8 5.5 5.8 5.5l-.5-3.5s1.8 2.2 2.7 4.1c.4.9 1.1 3.3 1.1 3.3l-.2-4.8s1.4 2.9 1.7 3.9c.3.8 1 3.5 1 3.5l.7-2.9 2.4 7.1.8-2.1 2.2 19.2z" class="st3"/><path id="path8" d="M606.1 203.1s-2.8-11.6-14.2-20.5c-9.5-7.4-19.3-7.6-19.3-7.6s5-1.3 9.7-.6c2.7.4 2.6 1 2.6 1s-4-3.5-3.7-3.4c3.8.9 7 3.9 7 3.9l-1.4-3.3s2.3 1.7 3.6 3.4c.6.7 2.1 2.9 2.1 2.9l-1.6-4.6s1.9 1.9 2.4 2.7c1.4 2.1 2.8 3.9 2.8 3.9l-1.7-4.4s2.3 2.6 3.1 3.7c.5.8 2.2 4 2.2 4l-.2-3.4s2.7 4.8 3.3 6.5c.6 1.8 2.7 7 3.4 12.9z" class="st3"/><path id="path9" d="M605.6 202.7s-5.9-10.3-19.3-15.8c-11.2-4.5-20.7-2-20.7-2s4.4-2.7 9.2-3.3c2.7-.3 2.7.2 2.7.2s-4.8-2.3-4.5-2.3c3.9-.1 7.8 1.9 7.8 1.9l-2.2-2.8s3.2 1.1 4.9 2.3c.8.6 2.7 1.8 2.7 1.8l-3.2-4s1.2.2 3.3 1.6 3.7 3.7 3.7 3.7l-2.7-4.5s2.9 2.2 4 3c.7.6 3.1 3.7 3.1 3.7l-1.1-3.2s3.9 3.8 4.9 5.3c1.1 1.6 4.5 6 6.8 11.4z" class="st3"/><path id="path10" d="M608 207.1s2.8-8.4 5.8-11.1c3-2.6 8-3.7 11.9-3.8 9.4-.2 16.8 6.1 16.8 6.1s-.6-1.7-2-3.2-2.1-1.7-2.1-1.7l4.4.1s-2.8-1.5-3.5-1.8c-1.6-.5-4.5-.8-4.5-.8l5.8-1.6s-2.1-1-5-.5c-.8.1-3.9 1-3.9 1l4.4-3s-3 0-5.1.9l-3 1.4 4.4-3.5s-2.5.4-5.3 1.2c-1.3.4-2.7 1.3-2.7 1.3l.5-2.9-5.8 4.1-2.1-3.1-3.4 4.5-2.7-2.3s-5.3 12.2-5.7 16.2c-.5 4.2 2.8 2.5 2.8 2.5" class="st3"/><path id="path11" d="M606.4 203.1s2.8-11.6 14.2-20.5c9.5-7.4 19.3-7.6 19.3-7.6s-5-1.3-9.7-.6c-2.7.4-2.6 1-2.6 1s4-3.5 3.7-3.4c-3.8.9-7 3.9-7 3.9l1.4-3.3s-2.3 1.7-3.6 3.4c-.6.7-2.1 2.9-2.1 2.9l1.6-4.6s-1.9 1.9-2.4 2.7c-1.4 2.1-2.8 3.9-2.8 3.9l1.7-4.4s-2.3 2.6-3 3.7c-.5.8-2.2 4-2.2 4l.2-3.4s-2.7 4.8-3.3 6.5c-.6 1.8-2.7 7-3.4 12.9z" class="st3"/><path id="path12" d="M606.9 202.7s5.9-10.3 19.3-15.8c11.2-4.5 20.7-2 20.7-2s-4.4-2.7-9.2-3.3c-2.7-.3-2.7.2-2.7.2s4.8-2.3 4.5-2.3c-3.9-.1-7.8 1.9-7.8 1.9l2.2-2.8s-3.2 1.1-4.9 2.3c-.8.6-2.7 1.8-2.7 1.8l3.2-4s-1.2.2-3.3 1.6-3.7 3.7-3.7 3.7l2.7-4.5s-2.9 2.2-4 3c-.7.6-3.1 3.7-3.1 3.7l1.1-3.2s-3.9 3.8-4.9 5.3c-1.1 1.6-4.5 6-6.8 11.4zm-2.9 6.1 4.7-.4.9-5.4-2.2 2-.4-2.2-1.5 1.3-2.9-1.5z" class="st3"/><path id="path13" d="m603.8 212.8 4.7-.5 1-5.7-2.3 2-.4-4.4-1.5 3.6-2.9-1.6z" class="st3"/><path id="path14" d="m603.7 216.8 4.7-.4.9-5.9-2.2 2.1-.5-4.4-1.4 3.5-2.9-1.6z" class="st3"/><path id="path15" d="m603.7 220.5 4.7-.4.9-5.5-2.2 2.1-.4-4.5-1.5 3.6-2.9-1.6z" class="st3"/><path id="path16" d="m603.8 224.3 4.7-.4.9-5.6-2.2 2-.5-4.4-1.4 3.6-2.9-1.6z" class="st3"/><path id="path17" d="M603.7 226.8s.7.4 2.3.3c1.6 0 2.3-.5 2.3-.5l1.1-4.6-2.2 2.1-.5-4.4-1.5 3.6-2.9-1.6z" class="st3"/><path id="path18" d="m603.8 231 4.7-.4.9-5.7-2.2 2.1-.4-4.4-1.5 3.5-2.9-1.6z" class="st3"/><path id="path19" d="M603.7 233.5s.7.4 2.3.3c1.6 0 2.3-.4 2.3-.4l1.1-4.6-2.2 2.1-.5-4.4-1.5 3.6-2.9-1.6z" class="st3"/><path id="path20" d="m603.8 237.6 4.7-.4 1-5.6-2.3 2-.4-4.4-1.5 3.6-2.9-1.6z" class="st3"/><path id="path21" d="M603.7 240.2s.7.4 2.3.3 2.3-.5 2.3-.5l1.1-4.6-2.2 2.1-.5-4.4-1.5 3.6-2.9-1.6z" class="st3"/><path id="path22" d="m603.8 244.3 4.7-.4 1-5.7-2.2 2.1-.5-4.4-1.5 3.5-2.8-1.6z" class="st3"/><path id="path23" d="M603.7 246.8s.7.4 2.3.3 2.3-.5 2.3-.5l1.1-4.6-2.2 2.1-.5-4.4-1.5 3.6-2.9-1.6z" class="st3"/><path id="path24" d="m603.9 251 4.6-.5 1-5.6-2.2 2.1-.5-4.5-1.5 3.6-2.8-1.6z" class="st3"/><path id="path25" d="m603.9 254.8 4.6-.4 1-5.7-2.2 2.1-.5-4.4-1.5 3.5-2.8-1.6z" class="st3"/><path id="path26" d="m603.9 258.6 4.6-.4 1-5.6-2.2 2-.5-4.4-1.5 3.5-2.8-1.5z" class="st3"/><path id="path27" d="m603.9 262.5 4.6-.5 1-5.6-2.2 2-.5-4.4-1.5 3.6-2.8-1.6z" class="st3"/><path id="path28" d="m603.9 266.3 4.6-.5 1-5.6-2.2 2.1-.5-4.5-1.5 3.6-2.8-1.6z" class="st3"/><path id="path29" d="m603.9 270.1 4.6-.4 1-5.7-2.2 2.1-.5-4.4-1.5 3.5-2.8-1.6z" class="st3"/><path id="path30" d="m603.9 273.9 4.6-.4 1-5.6-2.2 2-.5-4.4-1.5 3.6-2.8-1.6z" class="st3"/><path id="path31" d="m603.9 277.8 4.6-.5 1-5.6-2.2 2.1-.5-4.5-1.5 3.6-2.8-1.6z" class="st3"/><path id="path32" d="m603.9 285.4 4.6-.4 1-5.6-2.2 2-.5-4.4-1.5 3.5-2.8-1.5z" class="st3"/><path id="path33" d="m603.9 281.6 4.6-.4 1-5.7-2.2 2.1-.5-4.4-1.5 3.5-2.8-1.6zm-.079-76.41.012-.9 1.3.016-.012.9zM776.8 250.3C780.4 274.4 789 309 789 309s-7.1 1.7-20.1.9c-2.6-.2-5.4-.4-8.4-.9 0 0 8.8-32.4 8.4-64 0-.7-.5-1.4-1.2-1.6-14.8-4.4-29.2-15-33.9-20.2-5.1-5.6-9.7-20.2 0-5.5 7.6 11.4 25.1 18.7 32.6 21.4 1.1.4 2.3-.5 2.2-1.7v-.5c-.1-2.2-.9-4.4-2.1-6.2-2.9-4.3-7.9-11.6-12.8-15.4-9.1-7.1-.2-4 3.8.1 3 3 11.5 13.1 15.4 14.6.7.3 1.2.3 1.6-.1.8-.8 2.2-3.3 3.9-6.5.3-.6.2-1.2-.1-1.7-1.9-2.6-6.3-8.2-12.2-12.2-.1-.1-.2-.1-.2-.2-.6-.6-2.9-3 .9-1.2 3 1.4 8.6 7.2 11.6 10.5.8.9 2.2.7 2.7-.4 4.2-8.3 6.6-9.8 7.5-9 1.3 1-11.9 11.3-12.3 32.6 0 1.4 1.6 2.2 2.7 1.3 6.2-4.7 16.8-14.6 22.1-29.7 0-.1 0-.1.1-.2.2-.9 1.8-7.5 2.2.1.4 7.5-11.7 27.9-25.4 35.2-1 .4-1.3 1.1-1.2 1.8" class="st3"/><path id="path34" d="M768.8 309.8c-2.6-.2-5.4-.4-8.4-.9 0 0 8.8-32.4 8.4-64 0-.7-.5-1.4-1.2-1.6-14.8-4.4-29.2-15-33.9-20.2-5.1-5.6-9.7-20.2 0-5.5 7.6 11.4 25.1 18.7 32.6 21.4 1.1.4 2.3-.5 2.2-1.7v-.5c-.1-2.2-.9-4.4-2.1-6.2-2.9-4.3-7.9-11.6-12.8-15.4-9.1-7.1-.2-4 3.8.1 3 3 11.5 13.1 15.4 14.6 2.7 38.5-2 69.2-4 79.9" class="st3"/><path id="path35" d="M818 196.4c0-2.6-1.2-5-3.2-6.5 1-1.6 1.6-3.5 1.6-5.5 0-5.6-4.6-10.2-10.2-10.2-1.5 0-2.8.3-4.1.9-1.6-3.6-5.2-6.1-9.4-6.1-.4 0-.8 0-1.2.1a9.9 9.9 0 0 0-9.5-7.1c-.8 0-1.6.1-2.3.3-2.3-2.3-5.4-3.8-8.9-3.8-4.4 0-8.3 2.3-10.5 5.7-1.4-.8-3-1.3-4.7-1.3-4.3 0-7.9 2.9-8.9 6.8h-.3c-4.1 0-7.5 2.9-8.3 6.8-.6-.2-1.3-.3-2-.3-3.9 0-7.1 3.2-7.1 7.1 0 1.7.6 3.2 1.6 4.4-.6.2-1.2.4-1.7.7-1.5-1.2-3.5-2-5.6-2-2.9 0-5.5 1.4-7.1 3.6-1.1 1.5-1.7 3.3-1.7 5.3 0 2.2.8 4.3 2.2 5.9-2.5 2.2-4.2 5.5-4.2 9.2 0 6.8 5.5 12.2 12.2 12.2 6 0 11-4.4 12-10.1 1.6 3.5 5.2 5.9 9.3 5.9 2 0 3.8-.6 5.3-1.5 1.2 3.5 4.5 6.1 8.4 6.1 2.9 0 5.5-1.4 7.1-3.6.3 4.2 3.9 7.6 8.2 7.6s7.8-3.3 8.2-7.5c1.3 2.8 4.2 4.8 7.5 4.8 3.2 0 6-1.9 7.4-4.6 1.9 3.2 5.3 5.3 9.2 5.3 3.4 0 6.5-1.6 8.4-4.1 1.4-1.8 2.2-4.1 2.2-6.5 0-.4 0-.8-.1-1.2h.1c4.6 0 8.3-3.7 8.3-8.3.2-4.8-3.6-8.5-8.2-8.5m-56.5-17" class="st3"/><path id="path36" d="M815.8 220.8c-2 2.5-5 4.1-8.4 4.1-3.9 0-7.4-2.1-9.2-5.3-1.4 2.7-4.1 4.6-7.4 4.6s-6.2-2-7.5-4.8c-.4 4.2-3.9 7.5-8.2 7.5s-7.9-3.3-8.2-7.6a8.76 8.76 0 0 1-7.1 3.6c-3.9 0-7.2-2.5-8.4-6.1-1.6 1-3.4 1.5-5.3 1.5-4.1 0-7.6-2.4-9.3-5.9-1 5.7-6 10.1-12 10.1-6.8 0-12.2-5.5-12.2-12.2 0-3.7 1.6-6.9 4.2-9.2-1.4-1.6-2.2-3.6-2.2-5.9 0-2 .6-3.8 1.7-5.3-.8 4.9.7 12 14.7 13.1 0 0-4.1 5.2 14.7 4.7 0 0 5.5 9.7 18 3.6 0 0 13 7.3 23.3-.1 0 0 6.1 6.4 15.1 2.8 0 .1 4 6.9 13.7 6.8m4.5 61.1c1.8 12 6 29.2 6 29.2s-3.5.9-10 .4c-1.3-.1-2.7-.2-4.2-.4 0 0 4.4-16.1 4.2-31.8 0-.4-.2-.7-.6-.8-7.3-2.2-14.5-7.5-16.8-10-2.5-2.8-4.8-10 0-2.7 3.8 5.7 12.5 9.3 16.2 10.6.6.2 1.1-.2 1.1-.8v-.3c-.1-1.1-.4-2.2-1.1-3.1-1.4-2.1-3.9-5.8-6.4-7.6-4.5-3.5-.1-2 1.9 0 1.5 1.5 5.7 6.5 7.6 7.3.3.1.6.1.8 0 .4-.4 1.1-1.7 1.9-3.2.1-.3.1-.6-.1-.9-.9-1.3-3.1-4.1-6.1-6.1l-.1-.1c-.3-.3-1.4-1.5.5-.6 1.5.7 4.3 3.6 5.8 5.2.4.4 1.1.3 1.3-.2 2.1-4.1 3.3-4.9 3.7-4.5.7.5-5.9 5.6-6.1 16.2 0 .7.8 1.1 1.3.7 3.1-2.3 8.4-7.2 11-14.7v-.1c.1-.4.9-3.7 1.1 0s-5.8 13.8-12.6 17.5c-.2.1-.3.4-.3.8" class="st3"/><path id="path37" d="M816.4 311.5c-1.3-.1-2.7-.2-4.2-.4 0 0 4.4-16.1 4.2-31.8 0-.4-.2-.7-.6-.8-7.3-2.2-14.5-7.5-16.8-10-2.5-2.8-4.8-10 0-2.7 3.8 5.7 12.5 9.3 16.2 10.6.6.2 1.1-.2 1.1-.8v-.3c-.1-1.1-.4-2.2-1.1-3.1-1.4-2.1-3.9-5.8-6.4-7.6-4.5-3.5-.1-2 1.9 0 1.5 1.5 5.7 6.5 7.6 7.3 1.4 19-1 34.3-1.9 39.6" class="st3"/><path id="path38" d="M840.8 255.1c0-1.3-.6-2.5-1.6-3.2.5-.8.8-1.7.8-2.7 0-2.8-2.3-5.1-5.1-5.1-.7 0-1.4.2-2 .4-.8-1.8-2.6-3-4.7-3h-.6c-.6-2-2.5-3.5-4.7-3.5-.4 0-.8 0-1.1.1-1.1-1.2-2.7-1.9-4.4-1.9-2.2 0-4.1 1.1-5.2 2.8-.7-.4-1.5-.6-2.3-.6-2.1 0-3.9 1.4-4.4 3.4h-.2c-2 0-3.7 1.5-4.1 3.4-.3-.1-.6-.1-1-.1-1.9 0-3.5 1.6-3.5 3.5 0 .8.3 1.6.8 2.2l-.9.3c-.8-.6-1.7-1-2.8-1-1.4 0-2.7.7-3.5 1.8-.5.7-.9 1.6-.9 2.6 0 1.1.4 2.1 1.1 2.9-1.3 1.1-2.1 2.7-2.1 4.6 0 3.4 2.7 6.1 6.1 6.1 3 0 5.5-2.2 6-5 .8 1.7 2.6 2.9 4.6 2.9 1 0 1.9-.3 2.7-.7.6 1.7 2.2 3 4.2 3 1.4 0 2.7-.7 3.5-1.8.2 2.1 1.9 3.8 4.1 3.8 2.1 0 3.9-1.6 4.1-3.7.6 1.4 2.1 2.4 3.7 2.4s3-.9 3.7-2.3c.9 1.6 2.6 2.6 4.6 2.6 1.7 0 3.2-.8 4.2-2.1.7-.9 1.1-2 1.1-3.2v-.6c2.3 0 4.1-1.9 4.1-4.1-.1-2.3-2-4.2-4.3-4.2m-28.1-8.4" class="st3"/><path id="path39" d="M839.7 267.2c-1 1.2-2.5 2.1-4.2 2.1-2 0-3.7-1.1-4.6-2.6-.7 1.3-2.1 2.3-3.7 2.3-1.7 0-3.1-1-3.7-2.4-.2 2.1-1.9 3.7-4.1 3.7s-3.9-1.7-4.1-3.8c-.8 1.1-2.1 1.8-3.5 1.8-1.9 0-3.6-1.3-4.2-3-.8.5-1.7.7-2.7.7-2 0-3.8-1.2-4.6-2.9-.5 2.9-3 5-6 5-3.4 0-6.1-2.7-6.1-6.1 0-1.8.8-3.5 2.1-4.6-.7-.8-1.1-1.8-1.1-2.9 0-1 .3-1.9.9-2.6-.4 2.4.3 5.9 7.3 6.5 0 0-2 2.6 7.3 2.3 0 0 2.7 4.8 9 1.8 0 0 6.4 3.6 11.6-.1 0 0 3 3.2 7.5 1.4.1.1 2.1 3.5 6.9 3.4m-492.3 25.5h13.3v15.2h-13.3zm6-245.8h1.3v26.6h-1.3z" class="st3"/><path id="path40" d="M352.4 71.9h3.2v16.5h-3.2zm-2.6 145.5v-26.3h-3.5zm8.4 0v-26.3h3.5zm0 41.3v26.4h3.5zm-8.4 0v26.4h-3.5zm0-65.8h8.4v115h-8.4z" class="st3"/><g id="g41" class="st4"><path id="path41" d="M346.9 195.5h14.2l.4-2.6h-15z" class="st3"/></g><path id="path42" d="M346.2 193.9h15.5l-.6-2.8h-14.2zm10.1 8.6h-1v-5.1h1z" class="st3"/><path id="path43" d="M356.4 202.6h-1.1v-5.2h1.1zm-1-.1h.9v-5h-.9zm.9-3.3h-1z" class="st3"/><path id="path44" d="M355.3 199.2h1v.1h-1zm1 1.5h-1zm-1 0h1v.1h-1zm-2.7 1.8h-.9v-5.1h.9z" class="st3"/><path id="path45" d="M352.7 202.6h-1.1v-5.2h1.1zm-1-.1h.9v-5h-.9zm.9-3.3h-1z" class="st3"/><path id="path46" d="M351.7 199.2h1v.1h-1zm.9 1.5h-1zm-.9 0h1v.1h-1zm4.6 9.8h-1v-5.1h1z" class="st3"/><path id="path47" d="M356.4 210.6h-1.1v-5.2h1.1zm-1-.2h.9v-5h-.9zm.9-3.2h-1z" class="st3"/><path id="path48" d="M355.3 207.2h1v.1h-1zm1 1.5h-1zm-1 0h1v.1h-1zm-2.7 1.8h-.9v-5.1h.9z" class="st3"/><path id="path49" d="M352.7 210.6h-1.1v-5.2h1.1zm-1-.2h.9v-5h-.9zm.9-3.2h-1z" class="st3"/><path id="path50" d="M351.7 207.2h1v.1h-1zm.9 1.5h-1zm-.9 0h1v.1h-1zm4.6 9.8h-1v-5.1h1z" class="st3"/><path id="path51" d="M356.4 218.5h-1.1v-5.2h1.1zm-1-.1h.9v-5h-.9zm.9-3.2h-1z" class="st3"/><path id="path52" d="M355.3 215.2h1v.1h-1zm1 1.5h-1zm-1-.1h1v.1h-1zm-2.7 1.9h-.9v-5.1h.9z" class="st3"/><path id="path53" d="M352.7 218.5h-1.1v-5.2h1.1zm-1-.1h.9v-5h-.9zm.9-3.2h-1z" class="st3"/><path id="path54" d="M351.7 215.2h1v.1h-1zm.9 1.5h-1zm-.9-.1h1v.1h-1zm4.6 9.9h-1v-5.1h1z" class="st3"/><path id="path55" d="M356.4 226.5h-1.1v-5.2h1.1zm-1-.1h.9v-5h-.9zm.9-3.2h-1z" class="st3"/><path id="path56" d="M355.3 223.1h1v.1h-1zm1 1.6h-1zm-1-.1h1v.1h-1zm-2.7 1.9h-.9v-5.1h.9z" class="st3"/><path id="path57" d="M352.7 226.5h-1.1v-5.2h1.1zm-1-.1h.9v-5h-.9zm.9-3.2h-1z" class="st3"/><path id="path58" d="M351.7 223.1h1v.1h-1zm.9 1.6h-1zm-.9-.1h1v.1h-1zm4.6 9.9h-1v-5.1h1z" class="st3"/><path id="path59" d="M356.4 234.5h-1.1v-5.2h1.1zm-1-.1h.9v-5h-.9zm.9-3.2h-1z" class="st3"/><path id="path60" d="M355.3 231.1h1v.1h-1zm1 1.6h-1zm-1-.1h1v.1h-1zm-2.7 1.9h-.9v-5.1h.9z" class="st3"/><path id="path61" d="M352.7 234.5h-1.1v-5.2h1.1zm-1-.1h.9v-5h-.9zm.9-3.2h-1z" class="st3"/><path id="path62" d="M351.7 231.1h1v.1h-1zm.9 1.6h-1zm-.9-.1h1v.1h-1zm4.6 9.9h-1v-5.1h1z" class="st3"/><path id="path63" d="M356.4 242.5h-1.1v-5.2h1.1zm-1-.1h.9v-5h-.9zm.9-3.2h-1z" class="st3"/><path id="path64" d="M355.3 239.1h1v.1h-1zm1 1.6h-1zm-1-.1h1v.1h-1zm-2.7 1.9h-.9v-5.1h.9z" class="st3"/><path id="path65" d="M352.7 242.5h-1.1v-5.2h1.1zm-1-.1h.9v-5h-.9zm.9-3.2h-1z" class="st3"/><path id="path66" d="M351.7 239.1h1v.1h-1zm.9 1.6h-1zm-.9-.1h1v.1h-1zm4.6 9.9h-1v-5.1h1z" class="st3"/><path id="path67" d="M356.4 250.5h-1.1v-5.2h1.1zm-1-.1h.9v-5h-.9zm.9-3.2h-1z" class="st3"/><path id="path68" d="M355.3 247.1h1v.1h-1zm1 1.6h-1zm-1-.1h1v.1h-1zm-2.7 1.9h-.9v-5.1h.9z" class="st3"/><path id="path69" d="M352.7 250.5h-1.1v-5.2h1.1zm-1-.1h.9v-5h-.9zm.9-3.2h-1z" class="st3"/><path id="path70" d="M351.7 247.1h1v.1h-1zm.9 1.6h-1zm-.9-.1h1v.1h-1zm4.6 9.8h-1v-5h1z" class="st3"/><path id="path71" d="M356.4 258.5h-1.1v-5.2h1.1zm-1-.1h.9v-5h-.9zm.9-3.2h-1z" class="st3"/><path id="path72" d="M355.3 255.1h1v.1h-1zm1 1.6h-1zm-1-.1h1v.1h-1zm-2.7 1.8h-.9v-5h.9z" class="st3"/><path id="path73" d="M352.7 258.5h-1.1v-5.2h1.1zm-1-.1h.9v-5h-.9zm.9-3.2h-1z" class="st3"/><path id="path74" d="M351.7 255.1h1v.1h-1zm.9 1.6h-1zm-.9-.1h1v.1h-1zm4.6 9.8h-1v-5h1z" class="st3"/><path id="path75" d="M356.4 266.5h-1.1v-5.2h1.1zm-1-.1h.9v-5h-.9zm.9-3.2h-1z" class="st3"/><path id="path76" d="M355.3 263.1h1v.1h-1zm1 1.6h-1zm-1-.1h1v.1h-1zm-2.7 1.8h-.9v-5h.9z" class="st3"/><path id="path77" d="M352.7 266.5h-1.1v-5.2h1.1zm-1-.1h.9v-5h-.9zm.9-3.2h-1z" class="st3"/><path id="path78" d="M351.7 263.1h1v.1h-1zm.9 1.6h-1zm-.9-.1h1v.1h-1zm4.6 9.8h-1v-5h1z" class="st3"/><path id="path79" d="M356.4 274.5h-1.1v-5.2h1.1zm-1-.1h.9v-5h-.9zm.9-3.3h-1z" class="st3"/><path id="path80" d="M355.3 271.1h1v.1h-1zm1 1.5h-1zm-1 0h1v.1h-1zm-2.7 1.8h-.9v-5h.9z" class="st3"/><path id="path81" d="M352.7 274.5h-1.1v-5.2h1.1zm-1-.1h.9v-5h-.9zm.9-3.3h-1z" class="st3"/><path id="path82" d="M351.7 271.1h1v.1h-1zm.9 1.5h-1zm-.9 0h1v.1h-1zm4.6 9.8h-1v-5h1z" class="st3"/><path id="path83" d="M356.4 282.5h-1.1v-5.2h1.1zm-1-.1h.9v-5h-.9zm.9-3.3h-1z" class="st3"/><path id="path84" d="M355.3 279.1h1v.1h-1zm1 1.5h-1zm-1 0h1v.1h-1zm-2.7 1.8h-.9v-5h.9z" class="st3"/><path id="path85" d="M352.7 282.5h-1.1v-5.2h1.1zm-1-.1h.9v-5h-.9zm.9-3.3h-1z" class="st3"/><path id="path86" d="M351.7 279.1h1v.1h-1zm.9 1.5h-1zm-.9 0h1v.1h-1zm-11.3-140.1h27.2l2.2 2.5h-31.6zm5.6 44.9h16l-.4 5.7h-15.2zm-.9-4.7h17.8l-.4 4h-17zm.9 4.7h16l.5-.7h-17zm-1.8-9.3h19.6l-.4 3.9h-18.8zm.9 4.6h17.8l.5-.7h-18.8z" class="st3"/><path id="path87" d="M344.3 176.8h19.4l.1-.7h-19.6zm-.1-8.1h19.5v7.3h-19.5zm19.1-4.8h-18.6l-.5 4.8h19.6zm-20.8-6.4h23l-2.2 5.6h-18.6z" class="st3"/><path id="path88" d="M345.5 158.7h17v4.4h-17z" class="st3"/><g id="g89" class="st5"><path id="path89" d="M354 158.7h.5v5h-.5Z" class="st3"/></g><path id="path90" d="M353.5 158.7h.5v5h-.5z" class="st3"/><g id="g91" class="st5"><path id="path91" d="M360.1 158.7h.5v5h-.5z" class="st3"/></g><path id="path92" d="M359.6 158.7h.5v5h-.5z" class="st3"/><g id="g93" class="st5"><path id="path93" d="M357.1 158.7h.5v5h-.5z" class="st3"/></g><path id="path94" d="M356.6 158.7h.5v5h-.5z" class="st3"/><g id="g95" class="st5"><path id="path95" d="M347.9 158.7h.5v5h-.5z" class="st3"/></g><path id="path96" d="M347.3 158.7h.5v5h-.5z" class="st3"/><g id="g97" class="st5"><path id="path97" d="M350.9 158.7h.5v5h-.5z" class="st3"/></g><path id="path98" d="M350.4 158.7h.5v5h-.5z" class="st3"/><path id="path99" d="M344.7 163.1h18.7v1.2h-18.7zm-2.2-5.6h23l1.3-3.4h-25.6z" class="st3"/><path id="path100" d="M366.1 154.5h-24.2l1 2.6h22.3z" class="st3"/><g id="g101" class="st5"><path id="path101" d="M342.9 154.6h.2v2.6h-.2z" class="st3"/></g><path id="path102" d="M342.7 154.6h.2v2.6h-.2z" class="st3"/><g id="g103" class="st5"><path id="path103" d="M363.5 154.6h.2v2.6h-.2z" class="st3"/></g><path id="path104" d="M363.3 154.6h.2v2.6h-.2z" class="st3"/><g id="g105" class="st5"><path id="path105" d="M361.9 154.6h.2v2.6h-.2z" class="st3"/></g><path id="path106" d="M361.7 154.6h.2v2.6h-.2z" class="st3"/><g id="g107" class="st5"><path id="path107" d="M360.3 154.6h.2v2.6h-.2z" class="st3"/></g><path id="path108" d="M360.1 154.6h.2v2.6h-.2z" class="st3"/><g id="g109" class="st5"><path id="path109" d="M358.7 154.6h.2v2.6h-.2z" class="st3"/></g><path id="path110" d="M358.5 154.6h.2v2.6h-.2z" class="st3"/><g id="g111" class="st5"><path id="path111" d="M357.2 154.6h.2v2.6h-.2z" class="st3"/></g><path id="path112" d="M356.9 154.6h.2v2.6h-.2z" class="st3"/><g id="g113" class="st5"><path id="path113" d="M355.6 154.6h.2v2.6h-.2z" class="st3"/></g><path id="path114" d="M355.4 154.6h.2v2.6h-.2z" class="st3"/><g id="g115" class="st5"><path id="path115" d="M354 154.6h.2v2.6h-.2Z" class="st3"/></g><path id="path116" d="M353.8 154.6h.2v2.6h-.2z" class="st3"/><g id="g117" class="st5"><path id="path117" d="M352.4 154.6h.2v2.6h-.2z" class="st3"/></g><path id="path118" d="M352.2 154.6h.2v2.6h-.2z" class="st3"/><g id="g119" class="st5"><path id="path119" d="M350.8 154.6h.2v2.6h-.2z" class="st3"/></g><path id="path120" d="M350.6 154.6h.2v2.6h-.2z" class="st3"/><g id="g121" class="st5"><path id="path121" d="M349.3 154.6h.2v2.6h-.2z" class="st3"/></g><path id="path122" d="M349 154.6h.2v2.6h-.2Z" class="st3"/><g id="g123" class="st5"><path id="path123" d="M347.7 154.6h.2v2.6h-.2z" class="st3"/></g><path id="path124" d="M347.5 154.6h.2v2.6h-.2z" class="st3"/><g id="g125" class="st5"><path id="path125" d="M346.1 154.6h.2v2.6h-.2z" class="st3"/></g><path id="path126" d="M345.9 154.6h.2v2.6h-.2z" class="st3"/><g id="g127" class="st5"><path id="path127" d="M344.5 154.6h.2v2.6h-.2z" class="st3"/></g><path id="path128" d="M344.3 154.6h.2v2.6h-.2z" class="st3"/><g id="g129" class="st5"><path id="path129" d="M365 154.6h.2v2.6h-.2Z" class="st3"/></g><path id="path130" d="M364.8 154.6h.2v2.6h-.2zm-26.1-2.2h30.6l1.8-4.6h-34.2z" class="st3"/><path id="path131" d="M370.2 148.4h-32.4l1.3 3.4h29.8z" class="st3"/><g id="g132" class="st5"><path id="path132" d="M339.2 148.4h.3v3.4h-.3z" class="st3"/></g><path id="path133" d="M339 148.4h.3v3.4h-.3Z" class="st3"/><g id="g134" class="st5"><path id="path134" d="M366.6 148.4h.3v3.4h-.3z" class="st3"/></g><path id="path135" d="M366.4 148.4h.3v3.4h-.3z" class="st3"/><g id="g136" class="st5"><path id="path136" d="M364.5 148.4h.3v3.4h-.3z" class="st3"/></g><path id="path137" d="M364.2 148.4h.3v3.4h-.3z" class="st3"/><g id="g138" class="st5"><path id="path138" d="M362.4 148.4h.3v3.4h-.3z" class="st3"/></g><path id="path139" d="M362.1 148.4h.3v3.4h-.3z" class="st3"/><g id="g140" class="st5"><path id="path140" d="M360.3 148.4h.3v3.4h-.3z" class="st3"/></g><path id="path141" d="M360 148.4h.3v3.4h-.3Z" class="st3"/><g id="g142" class="st5"><path id="path142" d="M358.2 148.4h.3v3.4h-.3z" class="st3"/></g><path id="path143" d="M357.9 148.4h.3v3.4h-.3z" class="st3"/><g id="g144" class="st5"><path id="path144" d="M356.1 148.4h.3v3.4h-.3z" class="st3"/></g><path id="path145" d="M355.8 148.4h.3v3.4h-.3z" class="st3"/><g id="g146" class="st5"><path id="path146" d="M354 148.4h.3v3.4h-.3Z" class="st3"/></g><path id="path147" d="M353.7 148.4h.3v3.4h-.3z" class="st3"/><g id="g148" class="st5"><path id="path148" d="M351.9 148.4h.3v3.4h-.3z" class="st3"/></g><path id="path149" d="M351.6 148.4h.3v3.4h-.3z" class="st3"/><g id="g150" class="st5"><path id="path150" d="M349.8 148.4h.3v3.4h-.3z" class="st3"/></g><path id="path151" d="M349.5 148.4h.3v3.4h-.3z" class="st3"/><g id="g152" class="st5"><path id="path152" d="M347.7 148.4h.3v3.4h-.3z" class="st3"/></g><path id="path153" d="M347.4 148.4h.3v3.4h-.3z" class="st3"/><g id="g154" class="st5"><path id="path154" d="M345.6 148.4h.3v3.4h-.3z" class="st3"/></g><path id="path155" d="M345.3 148.4h.3v3.4h-.3z" class="st3"/><g id="g156" class="st5"><path id="path156" d="M343.5 148.4h.3v3.4h-.3z" class="st3"/></g><path id="path157" d="M343.2 148.4h.3v3.4h-.3z" class="st3"/><g id="g158" class="st5"><path id="path158" d="M341.4 148.4h.3v3.4h-.3z" class="st3"/></g><path id="path159" d="M341.1 148.4h.3v3.4h-.3z" class="st3"/><g id="g160" class="st5"><path id="path160" d="M368.7 148.4h.3v3.4h-.3z" class="st3"/></g><path id="path161" d="M368.5 148.4h.3v3.4h-.3zm-28.5 4.8h28v.9h-28zm30.9 0h-33.8l-2.2-.8h38.2zm-34.7-7.1h35.5v1.7h-35.5zm-4.4-.8h44.5v.8h-44.5zm4.9-2.7h34.7v.8h-34.7z" class="st3"/><g id="g162" class="st5"><path id="path162" d="M339.7 146.1h.3v.9h-.3z" class="st3"/></g><path id="path163" d="M339.4 146.1h.3v.9h-.3z" class="st3"/><g id="g164" class="st5"><path id="path164" d="M337.6 146.1h.3v.9h-.3z" class="st3"/></g><path id="path165" d="M337.3 146.1h.3v.9h-.3z" class="st3"/><g id="g166" class="st5"><path id="path166" d="M336.2 146.1h.3v.9h-.3z" class="st3"/></g><path id="path167" d="m336.2 147-3.1-.9h3.1zm35.6 0 3-.9h-3z" class="st3"/><g id="g168" class="st5"><path id="path168" d="M366.8 146.1h.3v.9h-.3z" class="st3"/></g><path id="path169" d="M366.5 146.1h.3v.9h-.3z" class="st3"/><g id="g170" class="st5"><path id="path170" d="M364.7 146.1h.3v.9h-.3z" class="st3"/></g><path id="path171" d="M364.4 146.1h.3v.9h-.3z" class="st3"/><g id="g172" class="st5"><path id="path172" d="M362.6 146.1h.3v.9h-.3z" class="st3"/></g><path id="path173" d="M362.3 146.1h.3v.9h-.3z" class="st3"/><g id="g174" class="st5"><path id="path174" d="M360.5 146.1h.3v.9h-.3z" class="st3"/></g><path id="path175" d="M360.2 146.1h.3v.9h-.3z" class="st3"/><g id="g176" class="st5"><path id="path176" d="M358.4 146.1h.3v.9h-.3z" class="st3"/></g><path id="path177" d="M358.2 146.1h.3v.9h-.3z" class="st3"/><g id="g178" class="st5"><path id="path178" d="M356.4 146.1h.3v.9h-.3z" class="st3"/></g><path id="path179" d="M356.1 146.1h.3v.9h-.3z" class="st3"/><g id="g180" class="st5"><path id="path180" d="M354.3 146.1h.3v.9h-.3z" class="st3"/></g><path id="path181" d="M354 146.1h.3v.9h-.3Z" class="st3"/><g id="g182" class="st5"><path id="path182" d="M352.2 146.1h.3v.9h-.3z" class="st3"/></g><path id="path183" d="M351.9 146.1h.3v.9h-.3z" class="st3"/><g id="g184" class="st5"><path id="path184" d="M350.1 146.1h.3v.9h-.3z" class="st3"/></g><path id="path185" d="M349.8 146.1h.3v.9h-.3z" class="st3"/><g id="g186" class="st5"><path id="path186" d="M348 146.1h.3v.9h-.3Z" class="st3"/></g><path id="path187" d="M347.8 146.1h.3v.9h-.3z" class="st3"/><g id="g188" class="st5"><path id="path188" d="M345.9 146.1h.3v.9h-.3z" class="st3"/></g><path id="path189" d="M345.7 146.1h.3v.9h-.3z" class="st3"/><g id="g190" class="st5"><path id="path190" d="M343.9 146.1h.3v.9h-.3z" class="st3"/></g><path id="path191" d="M343.6 146.1h.3v.9h-.3z" class="st3"/><g id="g192" class="st5"><path id="path192" d="M341.8 146.1h.3v.9h-.3z" class="st3"/></g><path id="path193" d="M341.5 146.1h.3v.9h-.3z" class="st3"/><g id="g194" class="st5"><path id="path194" d="M368.9 146.1h.3v.9h-.3z" class="st3"/></g><path id="path195" d="M368.6 146.1h.3v.9h-.3z" class="st3"/><g id="g196" class="st5"><path id="path196" d="M370.9 146.1h.3v.9h-.3z" class="st3"/></g><path id="path197" d="M370.7 146.1h.3v.9h-.3zm-33.2-2.7h33v2h-33z" class="st3"/><g id="g198" class="st5"><path id="path198" d="M337.7 143.4h.3v2h-.3z" class="st3"/></g><path id="path199" d="M337.4 143.4h.3v2h-.3z" class="st3"/><g id="g200" class="st5"><path id="path200" d="M364.4 143.4h.3v2h-.3z" class="st3"/></g><path id="path201" d="M364.2 143.4h.3v2h-.3z" class="st3"/><g id="g202" class="st5"><path id="path202" d="M362.4 143.4h.3v2h-.3z" class="st3"/></g><path id="path203" d="M362.1 143.4h.3v2h-.3z" class="st3"/><g id="g204" class="st5"><path id="path204" d="M360.3 143.4h.3v2h-.3z" class="st3"/></g><path id="path205" d="M360 143.4h.3v2h-.3Z" class="st3"/><g id="g206" class="st5"><path id="path206" d="M358.3 143.4h.3v2h-.3z" class="st3"/></g><path id="path207" d="M358 143.4h.3v2h-.3Z" class="st3"/><g id="g208" class="st5"><path id="path208" d="M356.2 143.4h.3v2h-.3z" class="st3"/></g><path id="path209" d="M355.9 143.4h.3v2h-.3z" class="st3"/><g id="g210" class="st5"><path id="path210" d="M354.1 143.4h.3v2h-.3z" class="st3"/></g><path id="path211" d="M353.9 143.4h.3v2h-.3z" class="st3"/><g id="g212" class="st5"><path id="path212" d="M352.1 143.4h.3v2h-.3z" class="st3"/></g><path id="path213" d="M351.8 143.4h.3v2h-.3z" class="st3"/><g id="g214" class="st5"><path id="path214" d="M350 143.4h.3v2h-.3Z" class="st3"/></g><path id="path215" d="M349.7 143.4h.3v2h-.3z" class="st3"/><g id="g216" class="st5"><path id="path216" d="M348 143.4h.3v2h-.3Z" class="st3"/></g><path id="path217" d="M347.7 143.4h.3v2h-.3z" class="st3"/><g id="g218" class="st5"><path id="path218" d="M345.9 143.4h.3v2h-.3z" class="st3"/></g><path id="path219" d="M345.6 143.4h.3v2h-.3z" class="st3"/><g id="g220" class="st5"><path id="path220" d="M343.8 143.4h.3v2h-.3z" class="st3"/></g><path id="path221" d="M343.6 143.4h.3v2h-.3z" class="st3"/><g id="g222" class="st5"><path id="path222" d="M341.8 143.4h.3v2h-.3z" class="st3"/></g><path id="path223" d="M341.5 143.4h.3v2h-.3z" class="st3"/><g id="g224" class="st5"><path id="path224" d="M339.7 143.4h.3v2h-.3z" class="st3"/></g><path id="path225" d="M339.4 143.4h.3v2h-.3z" class="st3"/><g id="g226" class="st5"><path id="path226" d="M366.5 143.4h.3v2h-.3z" class="st3"/></g><path id="path227" d="M366.2 143.4h.3v2h-.3z" class="st3"/><g id="g228" class="st5"><path id="path228" d="M368.6 143.4h.3v2h-.3z" class="st3"/></g><path id="path229" d="M368.3 143.4h.3v2h-.3zm2 0h.3v2h-.3zm-26.9-6.1h21.1v1.2h-21.1zm1.2 1.2h18.8v2h-18.8zm.9-3h17v1.8h-17zm1.2-11h14.6l2.2 11h-19zm1.3-9.7h12l1.8 9h-15.6Zm1.5-16.8h9l1.4 8.7h-11.8zm-2.8 26.5h14.6l.5-.7h-15.6z" class="st3"/><g id="g230" class="st4"><path id="path230" d="M346.4 191.7h15.2l.1-.6h-15.4z" class="st3"/></g><path id="path231" d="M354 191.1h.5v26.7h-.5Zm-.5 0h.5v26.7h-.5z" class="st3"/><g id="g232" class="st4"><path id="path232" d="M345.5 158.7h17v1.3h-17z" class="st3"/></g><g id="g233" class="st4"><path id="path233" d="M337.1 143.4h33.7v1h-33.7z" class="st3"/></g><g id="g234" class="st4"><path id="path234" d="M342.4 155.9h23.3l.4-1.4h-24.2z" class="st3"/></g><path id="path235" d="M344.2 112.3h19.6l2-5.2h-23.6z" class="st3"/><path id="path236" d="M364.8 107.8h-21.6l1.6 3.9h18.5z" class="st3"/><g id="g237" class="st5"><path id="path237" d="M344.8 107.8h.3v3.9h-.3z" class="st3"/></g><path id="path238" d="M344.4 107.8h.3v3.9h-.3z" class="st3"/><g id="g239" class="st5"><path id="path239" d="m363.5 110.8-.3.9v-3.9h.3z" class="st3"/></g><path id="path240" d="M362.9 107.8h.3v3.9h-.3z" class="st3"/><g id="g241" class="st5"><path id="path241" d="M360.9 107.8h.3v3.9h-.3z" class="st3"/></g><path id="path242" d="M360.6 107.8h.3v3.9h-.3z" class="st3"/><g id="g243" class="st5"><path id="path243" d="M358.6 107.8h.3v3.9h-.3z" class="st3"/></g><path id="path244" d="M358.3 107.8h.3v3.9h-.3z" class="st3"/><g id="g245" class="st5"><path id="path245" d="M356.3 107.8h.3v3.9h-.3z" class="st3"/></g><path id="path246" d="M356 107.8h.3v3.9h-.3Z" class="st3"/><g id="g247" class="st5"><path id="path247" d="M354 107.8h.3v3.9h-.3Z" class="st3"/></g><path id="path248" d="M353.7 107.8h.3v3.9h-.3z" class="st3"/><g id="g249" class="st5"><path id="path249" d="M351.7 107.8h.3v3.9h-.3z" class="st3"/></g><path id="path250" d="M351.4 107.8h.3v3.9h-.3z" class="st3"/><g id="g251" class="st5"><path id="path251" d="M349.4 107.8h.3v3.9h-.3z" class="st3"/></g><path id="path252" d="M349.1 107.8h.3v3.9h-.3z" class="st3"/><g id="g253" class="st5"><path id="path253" d="M347.1 107.8h.3v3.9h-.3z" class="st3"/></g><path id="path254" d="M346.8 107.8h.3v3.9h-.3z" class="st3"/><g id="g255" class="st4"><path id="path255" d="M344 109.8h20l.8-2h-21.6z" class="st3"/></g><g id="g256" class="st4"><path id="path256" d="M338.3 149.7h31.4l.5-1.3h-32.4z" class="st3"/></g><g id="g257" class="st4"><path id="path257" d="M335.4 146.8h37.2l2.2-.7h-41.7z" class="st3"/></g><path id="path258" d="M347.9 113.1H360v1.7h-12.1zm-4.4-.8h21.1v.8h-21.1z" class="st3"/><g id="g259" class="st5"><path id="path259" d="M351.4 113.1h.3v.9h-.3z" class="st3"/></g><path id="path260" d="M351.1 113.1h.3v.9h-.3z" class="st3"/><g id="g261" class="st5"><path id="path261" d="M349.3 113.1h.3v.9h-.3z" class="st3"/></g><path id="path262" d="M349 113.1h.3v.9h-.3Z" class="st3"/><g id="g263" class="st5"><path id="path263" d="M347.9 113.1h.3v.9h-.3z" class="st3"/></g><path id="path264" d="m347.9 114-3.1-.9h3.1zm12.1 0 3.1-.9H360Z" class="st3"/><g id="g265" class="st5"><path id="path265" d="M359.7 113.1h.3v.9h-.3z" class="st3"/></g><path id="path266" d="M359.5 113.1h.3v.9h-.3z" class="st3"/><g id="g267" class="st5"><path id="path267" d="M357.7 113.1h.3v.9h-.3z" class="st3"/></g><path id="path268" d="M357.4 113.1h.3v.9h-.3z" class="st3"/><g id="g269" class="st5"><path id="path269" d="M355.6 113.1h.3v.9h-.3z" class="st3"/></g><path id="path270" d="M355.3 113.1h.3v.9h-.3z" class="st3"/><g id="g271" class="st5"><path id="path271" d="M353.5 113.1h.3v.9h-.3z" class="st3"/></g><path id="path272" d="M353.2 113.1h.3v.9h-.3z" class="st3"/><g id="g273" class="st4"><path id="path273" d="M347.1 113.8h13.8l2.2-.7h-18.3z" class="st3"/></g><path id="path274" d="M365.8 107.1h-23.6l-2.2-.9h27.9zm-7.3-9.1h-9l-2.1-.8h13.2zM352 87.8h4v9.4h-4zm-8 197.3h19.9v8.7H344Z" class="st3"/><path id="path275" d="M349.6 293.7h3.3v14.2h-3.3zm-2.2 14.2h-5.5l2.1-14.2h3.4zm7.7-14.2h3.3v14.2h-3.3zm11 14.2h-5.5v-14.2h3.3z" class="st3"/><path id="path276" d="M335.7 306.9h36.5v5.4h-36.5z" class="st3"/><path id="path277" d="M245.7 165.1h1.8V198h-1.8z" class="st6"/><path id="path278" d="m258.1 169.4.2-.5.2.5h.6l-.5.3.2.5-.5-.3-.5.3.2-.5-.5-.3zm2.2 3.6.2-.6.2.6h.6l-.5.4.2.6-.5-.4-.5.4.2-.6-.5-.4zm0-5.9.2-.5.2.5h.6l-.5.3.2.5-.5-.3-.5.3.2-.5-.5-.3zm2 1.7.2-.5.2.5h.5l-.4.3.2.5-.4-.3-.4.3.2-.5-.4-.3zm-6.7-2.9-2.2 1.1h2.2v1.7h-2.2l2.2 1.1v.6h-1.1l-3-1.5v1.5h-1.7v-1.5l-3 1.5h-1.1v8h19.4v-13h-9.5zm-9.9 2.7v1.1l2.2-1.1zm8.8-3.3h-3v1.5zm-4.7 0h-3l3 1.5zm-4.1.6v1.1h2.2z" class="st3"/><path id="path279" d="M260 167.2h.4l.1-.4.1.4h.4l-.3.2.1.4-.3-.2-.3.2.1-.4zm.1.8.5-.3.5.3-.2-.5.5-.3h-.6l-.2-.5-.2.5h-.6l.5.3z" class="st3"/><path id="path280" d="m260.2 167.7.3-.2.3.2-.1-.3.3-.2h-.4l-.1-.4-.1.4h-.4l.3.2zm-2.5 1.8h.4l.1-.4.1.4h.4l-.3.2.1.4-.3-.2-.3.2.1-.4zm.1.8.5-.3.5.3-.2-.5.5-.3h-.6l-.2-.5-.2.5h-.6l.5.3z" class="st3"/><path id="path281" d="m257.9 170.1.3-.3.3.3-.1-.4.3-.2h-.3l-.2-.4-.1.4h-.4l.3.2zm4.1-1.2h.3l.1-.3.1.3h.3l-.3.2.1.3-.3-.2-.3.2.1-.3zm.1.7.4-.3.4.3-.2-.5.4-.3h-.5l-.2-.5-.2.5h-.5l.4.3z" class="st3"/><path id="path282" d="m262.2 169.4.3-.2.3.2-.1-.3.2-.2h-.3l-.1-.3-.1.3h-.4l.3.2zm-2.2 3.7h.4l.1-.4.1.4h.4l-.3.2.1.4-.3-.2-.3.2.1-.4zm0 .9.5-.4.5.4-.2-.6.5-.4h-.6l-.2-.6-.2.6h-.6l.5.4z" class="st3"/><path id="path283" d="m260.2 173.7.3-.2.4.2-.2-.4.4-.2h-.4l-.2-.4-.1.4h-.4l.3.2zm-9.1-3.4h.3v-1.5l-.3-.2zm-3.2-3.3h-2.2v.3h2.8zm7.7.3v-.3h-2.2l-.7.3zm-7.1 1h-2.8v.3h2.2zm4.9.3h2.2v-.3h-2.9zm-2-1.7v-1.6h-.3v1.7zm-1.6 1.9v1.5h.3v-1.7zm.3-1.8v-1.7h-.3v1.6z" class="st3"/><path id="path284" d="M251.1 168.3v.3l.3.2 3.1 1.5h1.1l-3.3-1.7h.7l2.6 1.3v-.2l-2.2-1.1-.7-.3zm-2.6-1h1.6v-.3l-.3-.1-3-1.6h-1.1l3.3 1.7h-.8l-2.5-1.3v.2l2.2 1.1zm1.2 1.3-3.3 1.7h.4l3-1.5.3-.2v-.3h-1.6l-.6.3-2.2 1.1v.6l3.3-1.7zm1.4-1.6v.3h1.6l.7-.3 2.2-1.1v-.6l-3.3 1.7h-.8l3.3-1.7h-.3l-3.1 1.6z" class="st3"/><path id="path285" d="M250.1 168.3v2h1v-2h4.5v-1h-4.5v-2h-1v2h-4.4v1z" class="st3"/><path id="path286" d="m249 167-3.3-1.7v.4l2.5 1.3zm3.3 0 3.3-1.7h-.8l-3.3 1.7zm0 1.6 3.3 1.7v-.4l-2.6-1.3zm-2.6 0h-.7l-3.3 1.7h.7z" class="st3"/><path id="path287" d="M196.1 265.2h101.3v28.2H196.1Zm20.1-64.4h61l1.5 11.7h-64zm14 0h32.6v-4.5h-32.6zm-13.9 11.7h60.8v5.2h-60.8zm-4.8 5.2h70.4v8.9h-70.4z" class="st6"/><path id="path288" d="M212.2 218.9h1.3v6.4h-1.3zm67.8 0h1.3v6.4H280Zm-1.6 0h1.3v6.4h-1.3zm-1.6 0h1.3v6.4h-1.3zm-1.6 0h1.3v6.4h-1.3zm-1.5 0h1.3v6.4h-1.3zm-1.6 0h1.3v6.4h-1.3zm-1.6 0h1.3v6.4h-1.3zm-1.6 0h1.3v6.4h-1.3zm-1.5 0h1.3v6.4h-1.3zm-1.6 0h1.3v6.4h-1.3zm-1.6 0h1.3v6.4h-1.3zm-1.6 0h1.3v6.4h-1.3zm-1.6 0h1.3v6.4H261Zm-1.5 0h1.3v6.4h-1.3zm-1.6 0h1.3v6.4h-1.3zm-1.6 0h1.3v6.4h-1.3zm-1.6 0h1.3v6.4h-1.3zm-1.5 0h1.3v6.4h-1.3zm-1.6 0h1.3v6.4h-1.3zm-1.6 0h1.3v6.4H250Zm-1.6 0h1.3v6.4h-1.3zm-1.5 0h1.3v6.4h-1.3zm-1.6 0h1.3v6.4h-1.3zm-1.6 0h1.3v6.4h-1.3zm-1.6 0h1.3v6.4h-1.3zm-1.6 0h1.3v6.4h-1.3zm-1.5 0h1.3v6.4H239Zm-1.6 0h1.3v6.4h-1.3zm-1.6 0h1.3v6.4h-1.3zm-1.6 0h1.3v6.4h-1.3zm-1.5 0h1.3v6.4h-1.3zm-1.6 0h1.3v6.4h-1.3zm-1.6 0h1.3v6.4h-1.3zm-1.6 0h1.3v6.4h-1.3zm-1.5 0h1.3v6.4h-1.3zm-1.6 0h1.3v6.4h-1.3zm-1.6 0h1.3v6.4h-1.3zm-1.6 0h1.3v6.4h-1.3zm-1.5 0h1.3v6.4h-1.3zm-1.6 0h1.3v6.4h-1.3zm-1.6 0h1.3v6.4h-1.3zm-1.6 0h1.3v6.4h-1.3zm-1.6 0h1.3v6.4h-1.3zm-5.9 7.7h77.8v1.3h-77.8z" class="st6"/><path id="path289" d="M207.8 227.3h77.8v8.9h-77.8z" class="st6"/><path id="path290" d="M209.8 228.6h1.2v6.4h-1.2zm1.5 0h1.3v6.4h-1.3zm1.6 0h1.3v6.4h-1.3zm1.6 0h1.3v6.4h-1.3zm1.6 0h1.3v6.4h-1.3zm1.5 0h1.3v6.4h-1.3zm1.6 0h1.3v6.4h-1.3zm1.6 0h1.3v6.4h-1.3zm1.6 0h1.3v6.4h-1.3zm1.6 0h1.2v6.4H224Zm1.5 0h1.3v6.4h-1.3zm1.6 0h1.3v6.4h-1.3zm1.6 0h1.3v6.4h-1.3zm1.6 0h1.2v6.4h-1.2zm1.5 0h1.3v6.4h-1.3zm1.6 0h1.3v6.4h-1.3zm1.6 0h1.3v6.4H235Zm1.6 0h1.3v6.4h-1.3zm1.5 0h1.3v6.4h-1.3zm1.6 0h1.3v6.4h-1.3zm1.6 0h1.3v6.4h-1.3zm1.6 0h1.3v6.4h-1.3zm1.6 0h1.2v6.4h-1.2zm1.5 0h1.3v6.4H246Zm1.6 0h1.3v6.4h-1.3zm1.6 0h1.3v6.4h-1.3zm1.6 0h1.2v6.4h-1.2zm1.5 0h1.3v6.4h-1.3zm1.6 0h1.3v6.4h-1.3zm1.6 0h1.3v6.4h-1.3zm1.6 0h1.2v6.4h-1.2zm1.5 0h1.3v6.4h-1.3zm1.6 0h1.3v6.4h-1.3zm1.6 0h1.3v6.4h-1.3zm1.6 0h1.3v6.4h-1.3zm1.6 0h1.2v6.4H265Zm1.5 0h1.3v6.4h-1.3zm1.6 0h1.3v6.4h-1.3zm1.6 0h1.3v6.4h-1.3zm1.6 0h1.2v6.4h-1.2zm1.5 0h1.3v6.4h-1.3zm1.6 0h1.3v6.4h-1.3zm1.6 0h1.3v6.4H276Zm1.6 0h1.3v6.4h-1.3zm1.6 0h1.3v6.4h-1.3zm1.6 0h1.2v6.4h-1.2zm1.6 0h1.2v6.4h-1.2zm1.5 0h1.3v6.4h-1.3zm-75.7 0h1.3v6.4h-1.3zm-6 7.6h89v1.3h-89z" class="st6"/><path id="path291" d="M202.2 237h89v8.9h-89z" class="st6"/><path id="path292" d="M204.2 238.2h1.3v6.5h-1.3zm1.6 0h1.3v6.5h-1.3zm1.5 0h1.3v6.5h-1.3zm1.6 0h1.3v6.5h-1.3zm1.6 0h1.3v6.5h-1.3zm1.6 0h1.3v6.5h-1.3zm1.6 0h1.2v6.5h-1.2zm1.5 0h1.3v6.5h-1.3zm1.6 0h1.3v6.5h-1.3zm1.6 0h1.3v6.5h-1.3zm1.6 0h1.2v6.5H220Zm1.5 0h1.3v6.5h-1.3zm1.6 0h1.3v6.5h-1.3zm1.6 0h1.3v6.5h-1.3zm1.6 0h1.2v6.5h-1.2zm1.5 0h1.3v6.5h-1.3zm1.6 0h1.3v6.5h-1.3zm1.6 0h1.3v6.5H231Zm1.6 0h1.3v6.5h-1.3zm1.6 0h1.2v6.5h-1.2zm1.5 0h1.3v6.5h-1.3zm1.6 0h1.3v6.5h-1.3zm1.6 0h1.3v6.5h-1.3zm1.6 0h1.2v6.5h-1.2zm1.5 0h1.3v6.5H242Zm1.6 0h1.3v6.5h-1.3zm1.6 0h1.3v6.5h-1.3zm1.6 0h1.2v6.5h-1.2zm1.5 0h1.3v6.5h-1.3zm1.6 0h1.3v6.5h-1.3zm1.6 0h1.3v6.5h-1.3zm1.6 0h1.3v6.5h-1.3zm1.6 0h1.2v6.5h-1.2zm1.5 0h1.3v6.5h-1.3zm1.6 0h1.3v6.5h-1.3zm1.6 0h1.3v6.5h-1.3zm1.6 0h1.2v6.5H261Zm1.5 0h1.3v6.5h-1.3zm1.6 0h1.3v6.5h-1.3zm1.6 0h1.3v6.5h-1.3zm1.6 0h1.2v6.5h-1.2zm1.5 0h1.3v6.5h-1.3zm1.6 0h1.3v6.5h-1.3zm1.6 0h1.3v6.5H272Zm1.6 0h1.3v6.5h-1.3zm1.6 0h1.3v6.5h-1.3zm1.6 0h1.3v6.5h-1.3zm1.6 0h1.3v6.5h-1.3zm1.6 0h1.3v6.5H280Zm1.6 0h1.2v6.5h-1.2zm1.6 0h1.2v6.5h-1.2zm1.5 0h1.3v6.5h-1.3zm1.6 0h1.3v6.5h-1.3zm1.6 0h1.3v6.5h-1.3zm1.6 0h1.3v6.5h-1.3zm-86.9 0h1.3v6.5h-1.3zm-6.8 7.7h101.9v1.3H195.8Z" class="st6"/><path id="path293" d="M195.8 246.6h101.9v8.9H195.8Z" class="st6"/><path id="path294" d="M201 247.9h1.3v6.4H201Zm1.6 0h1.2v6.4h-1.2zm1.5 0h1.3v6.4h-1.3zm1.6 0h1.3v6.4h-1.3zm1.6 0h1.3v6.4h-1.3zm1.6 0h1.2v6.4h-1.2zm1.5 0h1.3v6.4h-1.3zm1.6 0h1.3v6.4H212Zm1.6 0h1.3v6.4h-1.3zm1.6 0h1.3v6.4h-1.3zm1.6 0h1.2v6.4h-1.2zm1.5 0h1.3v6.4h-1.3zm1.6 0h1.3v6.4h-1.3zm1.6 0h1.3v6.4h-1.3zm1.6 0h1.2v6.4h-1.2zm1.5 0h1.3v6.4h-1.3zm1.6 0h1.3v6.4h-1.3zm1.6 0h1.3v6.4h-1.3zm1.6 0h1.2v6.4h-1.2zm1.5 0h1.3v6.4h-1.3zm1.6 0h1.3v6.4h-1.3zm1.6 0h1.3v6.4h-1.3zm1.6 0h1.3v6.4h-1.3zm1.5 0h1.3v6.4h-1.3zm1.6 0h1.3v6.4h-1.3zm1.6 0h1.3v6.4h-1.3zm1.6 0h1.3v6.4H242Zm1.6 0h1.2v6.4h-1.2zm1.5 0h1.3v6.4h-1.3zm1.6 0h1.3v6.4h-1.3zm1.6 0h1.3v6.4h-1.3zm1.6 0h1.2v6.4h-1.2zm1.5 0h1.3v6.4h-1.3zm1.6 0h1.3v6.4H253Zm1.6 0h1.3v6.4h-1.3zm1.6 0h1.3v6.4h-1.3zm1.5 0h1.3v6.4h-1.3zm1.6 0h1.3v6.4h-1.3zm1.6 0h1.3v6.4h-1.3zm1.6 0h1.3v6.4h-1.3zm1.6 0h1.2v6.4h-1.2zm1.5 0h1.3v6.4h-1.3zm1.6 0h1.3v6.4h-1.3zm1.6 0h1.3v6.4h-1.3zm1.6 0h1.3v6.4h-1.3zm1.6 0h1.3v6.4H272Zm1.6 0h1.3v6.4h-1.3zm1.6 0h1.3v6.4h-1.3zm1.6 0h1.3v6.4h-1.3zm1.6 0h1.3v6.4h-1.3zm1.6 0h1.3v6.4H280Zm1.6 0h1.2v6.4h-1.2zm1.6 0h1.2v6.4h-1.2zm1.5 0h1.3v6.4h-1.3zm1.6 0h1.3v6.4h-1.3zm1.6 0h1.3v6.4h-1.3zm1.6 0h1.3v6.4h-1.3zm1.6 0h1.3v6.4h-1.3zm1.6 0h1.3v6.4h-1.3zm1.6 0h1.3v6.4h-1.3zm1.6 0h1.3v6.4h-1.3zm-78.4-34.8h7.7v4h-7.7zm8.5 0h7.7v4H226Zm8.4 0h7.7v4h-7.7zm8.4 0h7.8v4h-7.8zm8.5 0h7.7v4h-7.7zm8.4 0h7.8v4h-7.8zm8.5 0h7.7v4h-7.7zM219.7 202h1.1v8.3h-1.1zm13.6 0h1.1v8.3h-1.1zm-1.4 0h1.1v8.3h-1.1zm-1.3 0h1.1v8.3h-1.1zm-1.4 0h1.1v8.3h-1.1zm-1.4 0h1.1v8.3h-1.1zm-1.3 0h1.1v8.3h-1.1zm-1.4 0h1.1v8.3h-1.1zm-1.3 0h1.1v8.3h-1.1zm-1.4 0h1.1v8.3h-1.1zm-1.4 0h1.1v8.3H221Zm38.2 0h1.1v8.3h-1.1zm13.7 0h1.1v8.3h-1.1zm-1.4 0h1.1v8.3h-1.1zm-1.4 0h1.1v8.3h-1.1zm-1.3 0h1.1v8.3h-1.1zm-1.4 0h1.1v8.3h-1.1zm-1.4 0h1.1v8.3H266Zm-1.3 0h1.1v8.3h-1.1zm-1.4 0h1.1v8.3h-1.1zm-1.4 0h1.1v8.3h-1.1zm-1.3 0h1.1v8.3h-1.1zm-70.3 53.5h112.8v1.3H190.3Z" class="st6"/><path id="path295" d="M190.3 256.3h112.8v8.9H190.3Z" class="st6"/><path id="path296" d="M201.8 257.5h1.3v6.4h-1.3zm1.6 0h1.3v6.4h-1.3zm1.6 0h1.3v6.4H205Zm1.6 0h1.2v6.4h-1.2zm1.5 0h1.3v6.4h-1.3zm1.6 0h1.3v6.4h-1.3zm1.6 0h1.3v6.4h-1.3zm1.6 0h1.2v6.4h-1.2zm1.5 0h1.3v6.4h-1.3zm1.6 0h1.3v6.4H216Zm1.6 0h1.3v6.4h-1.3zm1.6 0h1.3v6.4h-1.3zm1.6 0h1.2v6.4h-1.2zm1.5 0h1.3v6.4h-1.3zm1.6 0h1.3v6.4h-1.3zm1.6 0h1.3v6.4h-1.3zm1.6 0h1.2v6.4h-1.2zm1.5 0h1.3v6.4h-1.3zm1.6 0h1.3v6.4h-1.3zm1.6 0h1.3v6.4h-1.3zm1.6 0h1.2v6.4h-1.2zm1.5 0h1.3v6.4h-1.3zm1.6 0h1.3v6.4h-1.3zm1.6 0h1.3v6.4h-1.3zm1.6 0h1.3v6.4h-1.3zm1.6 0h1.2v6.4h-1.2zm1.5 0h1.3v6.4h-1.3zm1.6 0h1.3v6.4h-1.3zm1.6 0h1.3v6.4H246Zm1.6 0h1.2v6.4h-1.2zm1.5 0h1.3v6.4h-1.3zm1.6 0h1.3v6.4h-1.3zm1.6 0h1.3v6.4h-1.3zm1.6 0h1.2v6.4h-1.2zm1.5 0h1.3v6.4h-1.3zm1.6 0h1.3v6.4H257Zm1.6 0h1.3v6.4h-1.3zm1.6 0h1.3v6.4h-1.3zm1.6 0h1.3v6.4h-1.3zm1.6 0h1.3v6.4h-1.3zm1.6 0h1.2v6.4H265Zm1.6 0h1.2v6.4h-1.2zm1.5 0h1.3v6.4h-1.3zm1.6 0h1.3v6.4h-1.3zm1.6 0h1.3v6.4h-1.3zm1.6 0h1.3v6.4h-1.3zm1.6 0h1.3v6.4h-1.3zm1.6 0h1.3v6.4h-1.3zm1.6 0h1.3v6.4h-1.3zm1.6 0h1.3v6.4h-1.3zm1.6 0h1.3v6.4h-1.3zm1.6 0h1.3v6.4h-1.3zm1.6 0h1.2v6.4h-1.2zm1.6 0h1.2v6.4h-1.2zm1.5 0h1.3v6.4h-1.3zm1.6 0h1.3v6.4h-1.3zm1.6 0h1.3v6.4h-1.3zm1.4 0h1.3v6.4h-1.3zm1.4 0h1.2v6.4h-1.2zm1.3 0h1.3v6.4h-1.3zm1.4 0h1.3v6.4h-1.3zm1.4 0h1.2v6.4h-1.2zm1.3 0h1.3v6.4h-1.3zm1.4 0h1.3v6.4H300Zm1.3 0h1.3v6.4h-1.3zm-111 7.7h112.8v1H190.3Z" class="st6"/><path id="path297" d="M202.4 265.2h4.1v28.2h-4.1zm12.1 0h4.1v28.2h-4.1zm12 0h4.2v28.2h-4.2zm12.1 0h4.1v28.2h-4.1zm12.1 0h4.1v28.2h-4.1zm12 0h4.2v28.2h-4.2zm12.1 0h4.1v28.2h-4.1zm12.1 0h4.1v28.2h-4.1z" class="st6"/><path id="path298" d="M190.3 292.4h112.8v1H190.3Zm0 14.2h112.8v-13.2H190.3ZM84.1 254.2h39.5l-1.4-2.6H85.6Zm19.8-57.3c2 0 3.6 1.6 3.6 3.6s-1.6 3.6-3.6 3.6-3.6-1.6-3.6-3.6c0-1.9 1.6-3.6 3.6-3.6m-3.1 8h6.1l2.5 4.9H98.3Z" class="st6"/><path id="path299" d="M100.8 204.9h6.1v-1h-6.1zm.1-2.2h6l.8 1.2H100Zm2.7-7.3h.6v1.9h-.6z" class="st6"/><path id="path300" d="M100.7 195.8h6.4v.3h-6.4z" class="st6"/><path id="path301" d="m102.3 195.9-.7-1.4h-3.7l1.1 1.4-1.1 1.5h3.7zm3.9-1.3 1.4 1.3-1.4 1.4zm-20.6 57h36.6v-28H85.6Z" class="st6"/><path id="path302" d="M87.9 251.6h1l-1.8-4 3.8-8.3 3.8 8.3-1.9 4h1l1.4-2.9 1.4 2.9h1l-1.8-4 3.8-8.3 3.8 8.3-1.9 4h1l1.4-2.9 1.4 2.9h1l-1.9-4 3.8-8.3 3.8 8.3-1.9 4h1l1.4-2.9 1.4 2.9h1l-1.9-4 3.8-8.3 3.8 8.3-1.8 4h1l1.4-2.9 1 2.1v-2.1l-.5-1 .5-1v-2.1l-1 2.1-3.8-8.3 3.8-8.3 1 2.1v-2.1l-.5-1 .5-1V226l-1 2.1-2.1-4.4h-1l2.6 5.5-3.8 8.3-3.8-8.3 2.6-5.5h-1l-2.1 4.4-2.1-4.4h-1l2.6 5.5-3.8 8.3-3.8-8.3 2.6-5.5h-1l-2.1 4.4-2.1-4.4h-1l2.6 5.5-3.8 8.3-3.8-8.3 2.6-5.5h-1l-2.1 4.4-2.1-4.4h-1l2.6 5.5-3.8 8.3-3.8-8.3 2.6-5.5h-1l-2.1 4.4-1-2.1v2.1l.5 1-.5 1v2.1l1-2.1 3.8 8.3-3.8 8.3-1-2.1v2.1l.5 1-.5 1v2.1l1-2.1zm7.3-21.5-3.8 8.3 3.8 8.3 3.8-8.3zm8.7 0-3.8 8.3 3.8 8.3 3.8-8.3zm8.6 0-3.8 8.3 3.8 8.3 3.8-8.3zm-8.6-21.7c8.9 0 16.4 6.4 18.1 14.8H85.8c1.7-8.5 9.1-14.8 18.1-14.8m-27.6 45.8h55.2v3.7c-2.9.2-6.1.8-7.7 3.6-.1.2-.2.5-.3.7v28.2c.3 1.5.7 2.8 1.2 4.1 1.2 4.4 3.5 8 6.8 10v2.9H76.3v-2.9c3.3-2 5.6-5.6 6.8-10 .8-2 1.4-4.3 1.6-6.7.4-6.1 0-13.7 0-19.6 0-1.9.2-5.1-.7-6.7-1.6-2.9-4.9-3.5-7.7-3.6z" class="st6"/><path id="path303" d="M94.2 254.2h3.3v53.2h-3.3zm16.1 0h3.2v53.2h-3.2z" class="st6"/><path id="path304" d="M77.1 245.8v-1h19.6v9.4h-1v-5.6h-5.6v5.6h-1v-5.6h-11v5.6h-1zm18.6 0h-5.6v1.8h5.6zm-6.6 0h-11v1.8h11zm21.9 0v-1h19.6v9.4h-1v-5.6H124v5.6h-1v-5.6h-11v5.6h-1zm18.6 0H124v1.8h5.6zm-6.6 0h-11v1.8h11zm-22.4 3.9h.8v2h4.9v-2h.8v35.5h-.8v-3.6h-4.9v3.6h-.8zm5.7 31.1v-3.5h-4.9v3.5zm0-4.2v-3.5h-4.9v3.5zm0-4.1V269h-4.9v3.5zm0-4.2v-3.5h-4.9v3.5zm0-4.2v-3.5h-4.9v3.5zm0-4.1v-3.5h-4.9v3.5zm0-4.2v-3.5h-4.9v3.5zm-18.7 4.7H92v15.2h-4.4z" class="st6"/><path id="path305" d="M88.1 264.1h1.6V261h-1.6ZM90 261v3.1h1.6V261Zm1.5 3.5H90v3.5h1.6v-3.5zm0 3.8H90v3.5h1.6v-3.5zm0 3.8H90v3.1h1.6v-3.1zm-1.9 3.1v-3.1H88v3.1zm-1.5-3.5h1.6v-3.5h-1.6zm0-3.8h1.6v-3.5h-1.6zm27.6-7.4h4.5v15.2h-4.5z" class="st6"/><path id="path306" d="M116.2 264.1h1.6V261h-1.6zm1.9-3.1v3.1h1.6V261Zm1.6 3.5h-1.6v3.5h1.6zm0 3.8h-1.6v3.5h1.6zm0 3.8h-1.6v3.1h1.6zm-1.9 3.1v-3.1h-1.6v3.1zm-1.6-3.5h1.6v-3.5h-1.6zm0-3.8h1.6v-3.5h-1.6zm-31.4-44.8h38.1v.5H84.8Zm19 31.1h19.8l-1.4-2.6h-18.4zm.1-57.3c2 0 3.6 1.6 3.6 3.6s-1.6 3.6-3.6 3.6zm-.1 8h3.1l2.5 4.9h-5.6z" class="st6"/><path id="path307" d="M103.8 204.9h3.1v-1h-3.1zm0-2.2h3.1l.8 1.2h-3.9zm0-7.3h.4v1.9h-.4z" class="st6"/><path id="path308" d="M103.8 195.8h3.3v.3h-3.3z" class="st6"/><path id="path309" d="m106.2 194.6 1.4 1.3-1.4 1.4zm-2.4 57h18.4v-28h-18.4z" class="st6"/><path id="path310" d="m103.8 248.8 1.4 2.9h1l-1.9-4 3.8-8.3 3.8 8.3-1.9 4h1l1.4-2.9 1.4 2.9h1l-1.9-4 3.8-8.3 3.8 8.3-1.8 4h1l1.4-2.9 1 2.1v-2.1l-.5-1 .5-1v-2.1l-1 2.1-3.8-8.3 3.8-8.3 1 2.1v-2.1l-.5-1 .5-1V226l-1 2.1-2.1-4.4h-1l2.6 5.5-3.8 8.3-3.8-8.3 2.6-5.5h-1l-2.1 4.4-2.1-4.4h-1l2.6 5.5-3.8 8.3-3.8-8.3 2.6-5.5h-1l-2.1 4.4v2.2l3.8 8.3-3.8 8.3v1.9zm8.7-18.7-3.8 8.3 3.8 8.3 3.8-8.3zm-8.6-21.7c8.9 0 16.4 6.4 18.1 14.8h-18.1zm-.1 45.8h27.7v3.7c-2.9.2-6.1.8-7.7 3.6-.1.2-.2.5-.3.7v28.2c.3 1.5.7 2.8 1.2 4.1 1.2 4.4 3.5 8 6.8 10v2.9h-27.6v-53.2z" class="st6"/><path id="path311" d="M110.3 254.2h3.2v53.2h-3.2zm-6.5-2.6h2.5v-1.9h.8v35.4h-.8v-3.6h-2.5v-.7h2.5v-3.5h-2.5v-.7h2.5v-3.4h-2.5v-.7h2.5V269h-2.5v-.7h2.5v-3.5h-2.5v-.7h2.5v-3.4h-2.5v-.7h2.5v-3.5h-2.5v-.7h2.5v-3.5h-2.5zm11.9 8.9h4.5v15.2h-4.5z" class="st6"/><path id="path312" d="M116.2 264.1h1.6V261h-1.6zm1.9-3.1v3.1h1.6V261Zm1.6 3.5h-1.6v3.5h1.6zm0 3.8h-1.6v3.5h1.6zm0 3.8h-1.6v3.1h1.6zm-1.9 3.1v-3.1h-1.6v3.1zm-1.6-3.5h1.6v-3.5h-1.6zm0-3.8h1.6v-3.5h-1.6zm-12.4-44.8h19.1v.5h-19.1zm0 31.1h19.8l-1.4-2.6h-18.4zm.1-57.3c2 0 3.6 1.6 3.6 3.6s-1.6 3.6-3.6 3.6zm-.1 8h3.1l2.5 4.9h-5.6z" class="st6"/><path id="path313" d="M103.8 204.9h3.1v-1h-3.1zm0-2.2h3.1l.8 1.2h-3.9zm0-7.3h.4v1.9h-.4z" class="st6"/><path id="path314" d="M103.8 195.8h3.3v.3h-3.3z" class="st6"/><path id="path315" d="m106.2 194.6 1.4 1.3-1.4 1.4zm-2.4 57h18.4v-28h-18.4z" class="st6"/><path id="path316" d="m103.8 248.8 1.4 2.9h1l-1.9-4 3.8-8.3 3.8 8.3-1.9 4h1l1.4-2.9 1.4 2.9h1l-1.9-4 3.8-8.3 3.8 8.3-1.8 4h1l1.4-2.9 1 2.1v-2.1l-.5-1 .5-1v-2.1l-1 2.1-3.8-8.3 3.8-8.3 1 2.1v-2.1l-.5-1 .5-1V226l-1 2.1-2.1-4.4h-1l2.6 5.5-3.8 8.3-3.8-8.3 2.6-5.5h-1l-2.1 4.4-2.1-4.4h-1l2.6 5.5-3.8 8.3-3.8-8.3 2.6-5.5h-1l-2.1 4.4v2.2l3.8 8.3-3.8 8.3v1.9zm8.7-18.7-3.8 8.3 3.8 8.3 3.8-8.3zm-8.6-21.7c8.9 0 16.4 6.4 18.1 14.8h-18.1zm6.4 45.8h3.2v53.2h-3.2z" class="st6"/><path id="path317" d="M103.8 251.6h2.5v-1.9h.8v35.4h-.8v-3.6h-2.5v-.7h2.5v-3.5h-2.5v-.7h2.5v-3.4h-2.5v-.7h2.5V269h-2.5v-.7h2.5v-3.5h-2.5v-.7h2.5v-3.4h-2.5v-.7h2.5v-3.5h-2.5v-.7h2.5v-3.5h-2.5zm11.9 8.9h4.5v15.2h-4.5z" class="st6"/><path id="path318" d="M116.2 264.1h1.6V261h-1.6zm1.9-3.1v3.1h1.6V261Zm1.6 3.5h-1.6v3.5h1.6zm0 3.8h-1.6v3.5h1.6zm0 3.8h-1.6v3.1h1.6zm-1.9 3.1v-3.1h-1.6v3.1zm-1.6-3.5h1.6v-3.5h-1.6zm0-3.8h1.6v-3.5h-1.6zm-12.4-44.8h19.1v.5h-19.1zm7.2 22.7v-1h19.6v9.4h-1v-5.6H124v5.6h-1v-5.6h-11v5.6h-1zm18.6 0H124v1.8h5.6zm-6.6 0h-11v1.8h11z" class="st6"/><path id="path319" d="m179.5 303.1-.3-11.5-3.2-2-3.5 2-.3 11.5c-.1 1.8-1.5 3.2-3.3 3.2l6.7 2.1 7.2-2.1c-1.8 0-3.3-1.4-3.3-3.2" class="st3"/><path id="path320" d="m189.1 287.7-3.9-7.8c.5-.2 1-.4 1.6-.6s.8-.9.6-1.4l-4.1-8.2c.6-.2 1.2-.4 1.9-.6.5-.2.7-.8.5-1.2l-9.5-19.1c-.1-.1-.3-.1-.4 0l-5.3 10.5-4.9 6.6-2.8 23.2c.1.1.3.3.5.3 8.1 3.1 17.2 3.1 25.3 0 .6-.3.9-1.1.5-1.7" class="st3"/><path id="path321" d="m189.1 287.7-3.9-7.8c.5-.2 1-.4 1.6-.6.6 0 1-.6.7-1.1l-4.3-8.5c.6-.2 1.2-.4 1.9-.6.4-.4.5-1.1.3-1.6l-9.3-18.7c-.1-.1-.3-.1-.4 0l-2 4 5.9 11.8c.3.5.1 1.2-.3 1.6-.1 0-.2.1-.3.1-.8.3-1.2 1.2-.8 2l3.5 7c.3.5-.1 1.1-.7 1.1-.8.3-1.2 1.3-.8 2l3.2 6.3c.3.6 0 1.4-.6 1.7-5.3 2-10.9 2.7-16.4 2.2l-2.4-.6-1.3 1c.1.1.3.3.5.3 8.1 3.1 17.2 3.1 25.3 0 .7-.2 1-1 .6-1.6" class="st3"/><path id="path322" d="M178 282.4c-.6 0-1-.4-1.1-1 0-.6.4-1.1 1-1.2 1.2-.1 2.4-.2 3.5-.5.6-.1 1.2.3 1.3.9s-.3 1.2-.9 1.3c-1.2.2-2.5.4-3.8.5" class="st3"/><path id="path323" d="M182.7 280.6c-.1-.6-.7-1-1.3-.9-.2 0-.4.1-.6.1l1 2c.6-.1 1-.6.9-1.2m-41.9 22.8.3-10.4 3-2.9 3 2.9.3 10.4c0 1.6 1.4 2.9 3 2.9l-6.4 2.1-6.1-2.1c1.5 0 2.8-1.3 2.9-2.9" class="st3"/><path id="path324" d="M155.8 290.8v-1.6l-.2-.3c-3.7-.4-7.3-1.2-10.8-2.6-.8-.3-1.1-1.2-.8-2l4.6-9.2-1.8-.6c-.7-.3-1-1.1-.7-1.7l3.6-7.2-5.6-11.2c-.1-.1-.3-.1-.3 0l-8.6 17.2c-.2.4 0 .9.4 1.1.5.2 1.1.4 1.7.6l-3.7 7.4c-.2.5 0 1.1.5 1.3s.9.3 1.4.5l-3.5 7c-.3.6 0 1.3.6 1.5 7.3 2.8 15.5 2.8 22.8 0 .2 0 .3-.1.4-.2" class="st3"/><path id="path325" d="M142.9 260.6c.7 1.4.7 3 0 4.4l-2.7 5.3c-.3.6.1 1.4.8 1.4.4.1.8.3 1.1.4.4.1.5.5.4.9l-4.3 8.6c-.4.8 0 1.7.8 2 1.6.6 3.2 1.1 4.9 1.5l4.8-9.8 1.1-9.5-5.6-11.2c-.1-.1-.3-.1-.3 0l-2 4zm13 26.4-5.9 1c-.1.1-.2.2-.3.2-5.6 2.2-11.7 2.7-17.6 1.5-.2.6.1 1.2.6 1.4 7.3 2.8 15.5 2.8 22.8 0 .2-.1.3-.1.4-.3l1.4-1.9z" class="st3"/><path id="path326" d="M140.5 284.7h-.1c-.5-.1-.9-.1-1.4-.2-.6-.1-1-.7-.9-1.3s.7-1 1.3-.9c.4.1.9.1 1.3.2.6.1 1 .6.9 1.2 0 .6-.5 1-1.1 1" class="st3"/><path id="path327" d="M139.1 283.5c.8.3 1.5.6 2.3.8.1-.1.2-.3.2-.5.1-.6-.3-1.1-.9-1.2-.4-.1-.9-.1-1.3-.2s-.8.1-1.1.4c.2.3.4.5.8.7m25 19-.4-13.6-3.9-2.3-3.9 2.3-.4 13.6c-.1 2.1-1.8 3.8-3.9 3.8l8.2 3 8.2-3c-2.1 0-3.9-1.7-3.9-3.8" class="st3"/><path id="path328" d="M160.9 298.9c0-.6-.5-1.1-1.1-1.1s-1.1.5-1.1 1.1v8.6h2.2zm-1.1-3.2c-.6 0-1.1-.5-1.1-1.1v-5.4c0-.6.5-1.1 1.1-1.1s1.1.5 1.1 1.1v5.4c0 .6-.5 1.1-1.1 1.1" class="st3"/><path id="path329" d="m175.5 284.4-4.6-9.2 1.8-.6c.7-.3 1-1.1.7-1.7l-4.8-9.7c.7-.2 1.5-.5 2.2-.7.6-.2.8-.9.6-1.4L160 238.5c-.1-.2-.3-.2-.4 0L148.3 261c-.3.6 0 1.2.6 1.4.7.3 1.4.5 2.2.7l-4.8 9.7c-.3.7 0 1.4.7 1.7l1.8.6-4.6 9.2c-.4.8 0 1.7.8 2 9.6 3.7 20.2 3.7 29.8 0 .7-.2 1-1.2.7-1.9" class="st3"/><path id="path330" d="m175.5 284.4-4.6-9.2 1.8-.6c.7-.3 1-1.1.7-1.7l-4.8-9.7c.7-.2 1.5-.5 2.2-.7.6-.2.8-.9.6-1.4L160 238.5c-.1-.2-.3-.2-.4 0l-2 3.9 7.8 15.6c.3.6 0 1.2-.6 1.4-.1 0-.2.1-.3.1-1 .4-1.4 1.5-.9 2.4l4.1 8.2c.3.6-.1 1.4-.8 1.4-1 .4-1.4 1.5-.9 2.4l3.7 7.5c.4.8 0 1.7-.8 2-8 3.1-16.7 3.6-24.9 1.5 0 .6.3 1.1.9 1.4 9.6 3.7 20.2 3.7 29.8 0 .8-.2 1.1-1.2.8-1.9" class="st3"/><path id="path331" d="M159.8 278c-.6 0-1.1-.5-1.1-1.1s.5-1.1 1.1-1.1c2.4 0 4.9-.3 7.2-.8.6-.1 1.2.2 1.3.8s-.3 1.2-.8 1.3c-2.5.6-5.1.9-7.7.9" class="st3"/><path id="path332" d="M168.3 275.9c-.1-.6-.7-1-1.3-.8-.2 0-.4.1-.5.1l1 2c.6-.1 1-.7.8-1.3m-8.5-10.4c-1.8 0-3.5-.1-5.3-.4-.6-.1-1-.7-.9-1.3s.7-1 1.3-.9c1.6.3 3.3.4 4.9.4.6 0 1.1.5 1.1 1.1s-.5 1.1-1.1 1.1m23.3 40.8h-46.6c-1.3 0-2.5.8-3 2l-.7 1.8c-.1.2.1.4.3.4h53.5c.2 0 .4-.2.3-.4l-.7-1.8c-.6-1.2-1.8-2-3.1-2M321 259l-1.2 1.6v47l1.2 1.6h1.8c.3 0 .6-.3.6-.8V259Z" class="st3"/><path id="path333" d="M318.6 259v49.4c0 .4.3.8.6.8h1.8V259Z" class="st3"/><path id="path334" d="m319.8 270 2.4 3.6h1.8c.3 0 .6-.3.6-.6v-1.2c0-.3-.3-.6-.6-.6zm0 10.9 4.2-1.2c.3 0 .6-.3.6-.6v-1.2c0-.3-.3-.6-.6-.6h-1.8z" class="st3"/><path id="path335" d="m301.6 276.4 3.6 3.1c.2.2.5.3.8.3h12l4.2 2.4v-4.8H321v-3.8h1.2v-4.8l-4.2 2.4h-12c-.3 0-.6.1-.8.3l-3.6 3.1c-.3.2-.4.5-.4.9-.1.3.1.7.4.9m38.8 6.7-3.6-3.1c-.2-.2-.5-.3-.8-.3v8.5c.3 0 .6-.1.8-.3l3.6-3.1c.3-.2.4-.5.4-.9s-.1-.6-.4-.8" class="st3"/><path id="path336" d="m336.4 288 1.8-3.1c.1-.2.2-.5.2-.9s-.1-.7-.2-.9l-1.8-3.1c-.1-.2-.2-.3-.4-.3h-18c-.3 0-.6.3-.6.6v1.2c0 .3.3.6.6.6h3v3.8h-3c-.3 0-.6.3-.6.6v1.2c0 .3.3.6.6.6h18c.2 0 .3-.1.4-.3m4-22-3.6-3.1c-.2-.2-.5-.3-.8-.3v8.5c.3 0 .6-.1.8-.3l3.6-3.1c.3-.2.4-.5.4-.9s-.1-.6-.4-.8" class="st3"/><path id="path337" d="m336.4 270.9 1.8-3.1c.1-.2.2-.5.2-.9s-.1-.7-.2-.9l-1.8-3.1c-.1-.2-.2-.3-.4-.3h-18c-.3 0-.6.3-.6.6v1.2c0 .3.3.6.6.6h3v3.8h-3c-.3 0-.6.3-.6.6v1.2c0 .3.3.6.6.6h18c.2 0 .3-.1.4-.3m-13-13.1H321v2.4h2.4c.7 0 1.2-.5 1.2-1.2 0-.6-.5-1.2-1.2-1.2" class="st3"/><path id="path338" d="M322.2 259c0-.7-.5-1.2-1.2-1.2h-2.4c-.7 0-1.2.5-1.2 1.2s.5 1.2 1.2 1.2h2.4c.7 0 1.2-.5 1.2-1.2m185.4 124.1c-4.4 0-7.5 4-8.4 12.6h17.2c-.6-8.6-4-12.6-8.8-12.6m36.1 149.6c-.4 1.2-1.5 2-2.7 2-1.9 0-3.3-1.9-2.7-3.8l3.7-11.1c-7.1-.5-13 5.1-13 12 0 6.7 5.4 12.1 12.1 12.1s12.1-5.4 12.1-12.1c0-4.3-2.3-8.1-5.7-10.3zm15.1-17.7 9.3 11.9 7.2-11.9zm35.3 4.9c-5.7 0-10.4 3.9-11.7 9.2h11.7c1.6 0 2.9 1.3 2.9 2.9s-1.3 2.9-2.9 2.9h-11.7c1.3 5.2 6 9.1 11.7 9.1 6.6 0 12-5.4 12-12 .1-6.7-5.3-12.1-12-12.1M469.5 523c-2.7 0-4.9 2.2-4.9 4.9s2.2 4.9 4.9 4.9 4.9-2.2 4.9-4.9-2.2-4.9-4.9-4.9m-36.3-47.4h25.1c.8 0 1.4-.6 1.4-1.4v-2.8c0-.8-.6-1.4-1.4-1.4h-25.1c-.8 0-1.4.6-1.4 1.4v2.8c0 .8.6 1.4 1.4 1.4m43 5.5h-60.9c-1.5 0-2.8 1.3-2.8 2.8v32.2c0 1.5 1.3 2.8 2.8 2.8h60.9c1.5 0 2.8-1.3 2.8-2.8v-32.2c0-1.5-1.3-2.8-2.8-2.8m-21.6 45.6H437c-.7 0-1.3.6-1.3 1.3v2.5c0 .7.6 1.3 1.3 1.3h17.6c.7 0 1.3-.6 1.3-1.3V528c-.1-.7-.6-1.3-1.3-1.3m-32-3.7c-2.7 0-4.9 2.2-4.9 4.9s2.2 4.9 4.9 4.9 4.9-2.2 4.9-4.9-2.2-4.9-4.9-4.9M172.2 366.6c-9.8 0-16.1 8.5-16.1 23.3v2.1c0 14.8 6.3 23.4 16.2 23.4s16.1-8.5 16.1-23.3V390c0-14.7-6.2-23.4-16.2-23.4" class="st3"/><circle id="circle338" cx="312.5" cy="543" r="2.2" class="st3"/><path id="path339" d="M76.3 306.6v242.9c0 13.8 11.2 25 25 25h706.3c13.8 0 25-11.2 25-25V306.6Zm95.9 136.3c-27.3 0-47-20.6-47-50.4v-2.6c0-29.8 19.9-50.7 47.2-50.7 27.4 0 47.2 20.6 47.2 50.4v2.6c0 29.9-20.1 50.7-47.4 50.7m54.5 102.3c0 .1 0 .2-.1.2-.1.3-.4.4-.7.4l-6.7-.9-.9-.3c-.1 0-.2-.1-.3-.1l-.6-.3c-.1-.1-.2-.1-.3-.2-.2-.1-.4-.3-.5-.4l-.2-.2c-.2-.2-.4-.4-.6-.7 0-.1-.1-.1-.1-.2-.1-.2-.3-.4-.4-.6 0-.1-.1-.2-.1-.3-.1-.2-.2-.4-.2-.6 0-.1-.1-.2-.1-.3v-.1c0-.2-.1-.4-.1-.5v-1.3c0-.3.1-.7.2-1a5.7 5.7 0 0 1 5.5-4.1l6.5-.1c.4 0 .7.3.6.7zm-.4-18.1c-1.3-.4-2.4-1.4-3.1-2.7-.2-.3-.3-.6-.4-.9 0-.1 0-.1-.1-.2 0-.1 0-.1-.1-.2-.6-2.3.3-4.8 2.3-6.1l5.9-3.4c.3-.2.8-.1.9.2l3.9 7.7.4.8.6 1.1c.2.3 0 .7-.3.9l-6.1 2.4c-1.2.9-2.6.9-3.9.4m40.1-20.5c.1.2.2.3.3.5 2.6 3.9.7 8.1-2.9 10.5-.6.4-1.2.7-1.8 1-2 .9-4.1 1.4-6.3 1.6-2.5.3-5 .3-7.5.5-1.5.1-2.9.3-4.3.6-.1 0-.2 0-.3.1-.2 0-.4.1-.6.2-.4.1-.9.2-1.2.3s-.6-.1-.8-.3c0 0-.1-.1-.1-.2-1-2-4.2-7.9-5.2-9.7-.2-.3-.1-.7.2-.9 6.7-4.7 9.9-8 16.2-9.1 5.3-.7 11 .5 14.3 4.9m5.8 30.3c.4-.1.9.2.8.6l-.1 4.2c0 .1-.1.3-.1.4-.1.1-.3.2-.5.3h-.3l-5.8-2.3c-.1 0-.2-.1-.2-.2-.1-.1-.2-.2-.2-.4 0-.3.1-.6.5-.7zm-10.5.5c0 .3-.1.7-.1 1-.2 1-.5 2-1 2.8v.1c-.1.2-.2.3-.3.5-.1.1-.2.3-.2.4v.1c-1.1 1.7-2.7 3.2-4.5 4.3-1.7 1.1-3.6 1.8-5.5 2.3-4 .9-7.2.5-11.1-.5-1.6-.4-3.3-.8-5.2-1.3-.7-.2-1.4-.3-2.1-.5-.3-.1-.5-.4-.5-.7 0-.2 0-.4.1-.6.3-2.6.9-8.6 1.1-10.5 0-.3.3-.6.6-.6.7-.1 2-.2 2.2-.3 1.5-.3 2.8-.6 4.2-1.1 5.1-1.6 10.1-4.2 15.6-3.1 3.6.7 6.5 3.1 6.8 6.5v.9c-.1.1-.1.2-.1.3m11.7 12.8-3.4 2.7-1.3 1c-.3.2-.8.1-1-.2v-.1l-3.8-8.5c-.3-.6.4-1.1.9-.8l8.5 4.8c.4.2.4.8.1 1.1m26.9-109.4h-29.8V396c0-5.3-3-8.4-6.8-8.4-4 0-7.4 3.1-7.4 8.4v44.8h-29.7v-77.6h29.7v10.1c4.4-6 11.1-11.9 21.2-11.9 14.3 0 22.9 9.8 22.9 25.1v54.3zm61.2 108.9c-3.7 0-6.7-3-6.7-6.7 0-2.9 1.9-5.4 4.5-6.3V532c-5.1 1-8.9 5.5-8.9 10.9 0 1.2-1 2.2-2.2 2.2h-29.4c-.9 2.6-3.4 4.5-6.3 4.5a6.7 6.7 0 0 1 0-13.4c2.9 0 5.4 1.9 6.3 4.5h27.3c1-6.8 6.4-12.2 13.2-13.2v-30l-12.1-6.1c-1.1-.6-1.5-1.9-1-3 .6-1.1 1.9-1.5 3-1l13.4 6.7c.8.4 1.2 1.1 1.2 2v40.5c2.6.9 4.5 3.4 4.5 6.3-.1 3.8-3.1 6.8-6.8 6.8m24.2-163.3h-14.9v24.4c0 4.5 2.1 6.4 6.4 6.4 2.6 0 5.3-.7 8.2-2v23.2c-4.7 2.4-11.5 4.1-18.6 4.1-16.3 0-25.7-7.5-25.7-24.6v-31.5h-7.5v-23.2h7.5v-19h29.7v19h14.9zm6.1-48.6h29.7V373c4.4-6 11.1-11.7 21.2-11.7 14.3 0 22.9 9.8 22.9 25.1v54.3h-29.8v-44.8c0-5.3-3-8.4-6.8-8.4-4 0-7.4 3.1-7.4 8.4v44.8h-29.7V337.8ZM491 507.6c0 1-.8 1.9-1.9 1.9h-3.8c-1 0-1.9-.8-1.9-1.9v-12.2h-1.3v37.4c0 3.5-2.8 6.2-6.2 6.2h-1.3v8.2c0 1.4-1.1 2.5-2.5 2.5h-5.6c-1.4 0-2.5-1.1-2.5-2.5V539h-36v8.2c0 1.4-1.1 2.5-2.5 2.5h-5.6c-1.4 0-2.5-1.1-2.5-2.5V539h-1.8c-3.5 0-6.2-2.8-6.2-6.2v-37.4H408v12.2c0 1-.8 1.9-1.9 1.9h-3.8c-1 0-1.9-.8-1.9-1.9v-15.1c0-1 .8-1.9 1.9-1.9h3.8c1 0 1.9.8 1.9 1.9v.3h1.4v-20.2c0-2.5 1.7-4.7 4.2-5.3 21.5-5.2 43-5.1 64.5 0 2.5.6 4.2 2.8 4.2 5.3v20.2h1.3v-.3c0-1 .8-1.9 1.9-1.9h3.8c1 0 1.9.8 1.9 1.9v15.1zm-19.7-104.4v-1.8c0-23.7 15.1-39.9 36.2-39.9 23.9 0 35.9 17.2 35.9 41.5v7.5h-43.9c2 6.5 6.8 9.7 13.2 9.7 5.8 0 10.8-2.7 15.3-7l13.6 16.2c-7.7 7.8-17.5 13.4-31.7 13.4-23.1-.1-38.6-15.1-38.6-39.6m135.4 141.2c-10.3 10.3-27.7 4.5-30-9.6h-8.2c-.9 0-1.7-.4-2.3-1.1l-16-20.5-1 2.9c5.7 3 9.6 8.9 9.6 15.8 0 9.8-8 17.8-17.8 17.8s-17.8-8-17.8-17.8c0-10.8 9.7-19.3 20.5-17.6l4.7-14.2h-3.9c-1.6 0-2.9-1.3-2.9-2.9s1.3-2.9 2.9-2.9h7.9c1.9 0 3.3 1.9 2.7 3.8l-2.8 8.5 2 2.6h24.4l3.1-5.2h-.7c-1.6 0-2.9-1.3-2.9-2.9s1.3-2.9 2.9-2.9h8.9c1.6 0 2.9 1.3 2.9 2.9s-1.3 2.9-2.9 2.9h-1.5l-15.1 25h3.2c2.2-13.8 19.5-20.3 30-9.7 7 7 7 18.2.1 25.1m-30.1-151.9v-2.7c0-30.1 21.3-50.4 49.3-50.4 14.3 0 25.6 4.4 35.8 12.6l-16.2 22.6c-5.1-4.5-10.9-7.8-18.3-7.8-11.2 0-19.6 9.1-19.6 23.9v1.7c0 15.9 8.4 24.4 19.3 24.4 4.1 0 6.4-.7 8.2-1.7v-11.9h-13.6v-21.6h42.1v48.7c-9.5 7.2-22.4 12.5-37.7 12.5-27.5 0-49.3-19-49.3-50.3m111.1 133v.2c-.2 3.2-2.9 5.4-6.2 6.2-5 1.1-9.8-1.1-14.5-2.5-1.3-.4-2.6-.7-4-.9-.2 0-1.4-.2-2.1-.2-.3 0-.5-.3-.5-.5-.2-1.7-.9-7.4-1.2-9.7 0-.2-.1-.4-.1-.5 0-.3.2-.6.5-.7 1.7-.4 3.2-.8 4.6-1.2.2 0 .3-.1.5-.1.6-.2 1.2-.3 1.7-.5.8-.2 1.6-.4 2.3-.5 2.6-.5 5-.7 7.9-.1 1.7.4 3.4 1 4.9 1.9 1.7.9 3.1 2.2 4.2 3.7q1.2 1.65 1.8 3.9c.1.3.1.6.1.9v.3c.1-.1.1.1.1.3m-43.4-.5c-.1-.3-.2-.6-.2-.9v-1.2c0-.2 0-.3.1-.5v-.1c0-.1 0-.2.1-.3.1-.2.1-.4.2-.6 0-.1.1-.2.1-.3l.3-.6c0-.1.1-.1.1-.2.2-.2.3-.4.5-.6.1-.1.1-.1.2-.1.2-.1.3-.3.5-.4.1-.1.2-.1.2-.2.2-.1.4-.2.5-.3.1 0 .2-.1.2-.1l.9-.3 6.2-1c.3-.1.5.1.7.3 0 .1.1.1.1.2l1 10c0 .3-.2.7-.6.7l-6.1.1c-2.2.2-4.3-1.4-5-3.6m16.2 21.8c-.2.3-.6.4-.9.2l-5.5-3c-1.9-1.2-2.8-3.5-2.2-5.6v-.2c0-.1 0-.1.1-.2.1-.3.2-.6.3-.8.5-.9 1.2-1.6 2-2.1 1.4-.8 3.1-1 4.6-.3l5.7 2.1c.3.1.4.5.3.8v.1l-.6 1.3-.3.6zm32.5 5.7c-.1.2-.2.3-.3.5-3 4.2-8.3 5.4-13.2 4.7-5.8-.8-8.8-3.9-15.2-8.1-.3-.2-.3-.5-.2-.8.9-1.7 3.7-7.1 4.6-9 0-.1.1-.1.1-.2.1-.3.4-.4.7-.3.7.2 1.8.4 2 .5 1.4.3 2.6.4 4 .5 2.5.2 5.2.1 7.7.4 1.9.2 3.8.6 5.6 1.5.4.2.8.4 1.2.7 3 1.9 4.7 5.1 3.6 8.3-.1.4-.3.8-.6 1.3m4.5-27.7-5.5-1.6c-.3-.1-.4-.3-.4-.6 0-.2.1-.3.2-.4s.1-.1.2-.1l5.3-2.3h.3c.2 0 .3.1.4.2s.1.2.2.4l.2 3.8c-.1.4-.5.7-.9.6m.7-11.3-7.8 4.6c-.5.3-1.1-.2-.9-.8l3.3-7.9c.2-.3.6-.5.9-.2l1.2.9 3.2 2.4c.5.3.5.8.1 1m48.6-110.3c0 22.7-16.1 39.5-38.9 39.5-22.7 0-38.6-16.5-38.6-39.2v-2.6c0-22.7 16.1-39.5 38.9-39.5 22.7 0 38.6 16.5 38.6 39.2zm38.8 37.6h-31.1v-25.6h31.1zm1.7-84.5-9.8 53h-14.9l-9.8-53v-14.9h34.5z" class="st3"/><path id="path340" d="M707.9 386.5c-6 0-9.7 5.7-9.7 14.5v1.7c0 9.1 4 14.8 9.9 14.8 6 0 9.8-5.7 9.8-14.6v-1.7c.1-9-4-14.7-10-14.7" class="st3"/><circle id="circle340" cx="361.5" cy="543" r="2.2" class="st3"/></g></svg>